<?xml version="1.0" encoding="UTF-8"?>
<!-- Generator: visioncortex VTracer 0.6.12 -->
<svg version="1.1" xmlns="http://www.w3.org/2000/svg" width="519" height="210">
<path d="M0 0 C0.4518944549560615 0.0011103057861276966 0.4518944549560615 0.0011103057861276966 2.7387542724609375 0.0067291259765625 C3.7597370910644514 0.006804656982424717 4.780719909667965 0.006880187988286934 5.8326416015625 0.0069580078125 C6.9430430603027276 0.012119293212890625 8.05344451904297 0.01728057861328125 9.197494506835938 0.0225982666015625 C9.762786178588868 0.023305740356448723 9.762786178588868 0.023305740356448723 12.623504638671875 0.026885986328125 C16.25105890987821 0.03250432675844195 19.878552495819832 0.0450599378406622 23.506088256835938 0.0577545166015625 C25.958561326755557 0.06276715358761464 28.411035359564792 0.06733046874053628 30.863510131835938 0.0714263916015625 C36.890223708609966 0.08247971413250355 42.9169016491536 0.09923568029870466 48.94358825683594 0.1202545166015625 C50.76066829479089 5.403076745485677 52.57536912765153 10.68670811849951 54.38792419433594 15.971084594726563 C55.004141611277305 17.766553338159852 55.62099477137207 19.561804026610645 56.23851013183594 21.356826782226563 C57.128879039002015 23.945358967979615 58.01691608653823 26.534681333517227 58.90452575683594 29.124160766601563 C59.04154403686522 29.52169807434082 59.04154403686522 29.52169807434082 59.73493957519531 31.533477783203125 C60.48469460946586 33.72481822106889 61.21731927234822 35.921035154507706 61.94358825683594 38.12025451660156 C62.35689392089844 39.357673950195306 62.77019958496095 40.59509338378906 63.19602966308594 41.87001037597656 C63.96080134701532 45.195093794706764 64.13988467902519 46.94515035523614 62.94358825683594 50.12025451660156 C61.38743591308591 51.75086975097659 61.38743591308591 51.75086975097659 59.35765075683594 53.17884826660156 C58.600407104492206 53.723396606445306 57.84316345214842 54.26794494628905 57.06297302246094 54.82899475097656 C56.23982604980469 55.39948547363281 55.416679077148444 55.96997619628905 54.56858825683594 56.55775451660156 C52.84008321141789 57.786020375748734 51.112238471608066 59.01521589975232 49.38499450683594 60.24525451660156 C48.49054626464846 60.87689514160155 47.59609802246092 61.50853576660157 46.67454528808594 62.15931701660156 C43.94318306907218 64.12054545778864 41.26528394629548 66.13810269039061 38.59593200683594 68.18275451660156 C37.74241149902343 68.83187805175783 36.88889099121093 69.48100158691406 36.00950622558594 70.14979553222656 C34.362739934986195 71.4048646331664 32.722219024950306 72.66817823373651 31.088607788085938 73.94032287597656 C30.340790405273438 74.5037237548828 29.59297302246094 75.06712463378906 28.822494506835938 75.64759826660156 C28.168375854492183 76.15025207519531 27.51425720214843 76.65290588378906 26.840316772460938 77.17079162597656 C24.943588256835938 78.12025451660156 24.943588256835938 78.12025451660156 22.932113647460938 77.93006896972656 C20.77392441683361 77.05115998532006 19.123077903790175 76.01988297699967 17.248275756835938 74.63587951660156 C16.540580444335944 74.11872375488281 15.832885131835937 73.60156799316405 15.103744506835938 73.06874084472656 C14.34964294433594 72.5082403564453 13.595541381835943 71.94773986816406 12.818588256835938 71.37025451660156 C11.212002197938176 70.19161719476813 9.605225473533324 69.01323973054787 7.9982757568359375 67.83509826660156 C7.1703753662109335 67.22521057128907 6.3424749755859295 66.61532287597657 5.4894866943359375 65.98695373535156 C2.9456680156294794 64.12177943372234 0.3890338022020927 62.27588283538199 -2.1735992431640625 60.43666076660156 C-2.991992797851566 59.849170532226566 -3.8103863525390693 59.26168029785157 -4.6535797119140625 58.65638732910156 C-6.232835827398077 57.52353341980293 -7.81257431166398 56.39135159921793 -9.392837524414063 55.25990295410156 C-10.106817016601568 54.74588928222656 -10.820796508789059 54.23187561035155 -11.556411743164063 53.70228576660156 C-12.185474243164066 53.250872192382815 -12.81453674316407 52.79945861816407 -13.462661743164063 52.33436584472656 C-15.056411743164063 51.12025451660156 -15.056411743164063 51.12025451660156 -17.056411743164063 49.12025451660156 C-16.686102864850042 43.32903511407959 -14.920060583919323 38.00110422610226 -13.150161743164063 32.50306701660156 C-12.865399780273435 31.60530548095703 -12.580637817382808 30.707543945312494 -12.287246704101563 29.782577514648438 C-11.688040824280208 27.897550029926123 -11.08614678357172 26.013375149713738 -10.481704711914063 24.130020141601563 C-9.55332056533031 21.235617219165263 -8.634316080548203 18.338357827487727 -7.7165679931640625 15.440567016601563 C-7.132479865254908 13.607059247224043 -6.547863277789261 11.773719723116884 -5.9626617431640625 9.940567016601563 C-5.686600952148439 9.070862731933602 -5.410540161132815 8.201158447265627 -5.1261138916015625 7.3050994873046875 C-2.827542353016611 0.16534856891513527 -2.827542353016611 0.16534856891513527 0 0 Z " fill="#FFBF00" transform="translate(86.05641174316406,80.87974548339844)"/>
<path d="M0 0 C3.8004131695288947 2.242685678530137 7.3308904664206125 4.773000983282515 10.875 7.3984375 C12.470855087606424 8.5722933828294 14.067225352530386 9.745449147283836 15.6640625 10.91796875 C16.074790039062492 11.22001220703126 16.074790039062492 11.22001220703126 18.1533203125 12.74853515625 C20.69082457618876 14.588347977880204 23.25643112761867 16.379816077810602 25.8359375 18.16015625 C26.247672119140617 18.447415771484373 26.247672119140617 18.447415771484373 28.331298828125 19.901123046875 C29.91735105703492 21.005932417189683 31.51076214603387 22.100267752941363 33.112060546875 23.182861328125 C33.82918212890627 23.687126464843743 34.54630371093748 24.191391601562486 35.28515625 24.7109375 C35.91945556640627 25.146640625000003 36.553754882812484 25.582343750000007 37.207275390625 26.03125 C39.21170761185036 28.136515443635687 39.32982179662568 29.72342114251407 39.6875 32.5859375 C39.282989501953125 34.80619812011719 39.282989501953125 34.80619812011719 38.53173828125 37.069091796875 C38.3931690979004 37.49612144470214 38.3931690979004 37.49612144470214 37.691925048828125 39.65715026855469 C37.38366790771482 40.565642242431636 37.07541076660158 41.474134216308585 36.7578125 42.41015625 C36.602918548584 42.8814621734619 36.602918548584 42.8814621734619 35.819061279296875 45.26655578613281 C34.82795398633431 48.272648876287604 33.82028817130066 51.27290080590578 32.8125 54.2734375 C32.140872233878895 56.3049901140044 31.470287040407783 58.33688771841986 30.80078125 60.369140625 C29.57401820857811 64.07848638398974 28.345065024874657 67.7870316729472 27.10205078125 71.490966796875 C26.85254669189453 72.23533493041992 26.603042602539063 72.97970306396485 26.345977783203125 73.74662780761719 C25.6875 75.58593749999994 25.6875 75.58593749999994 24.6875 77.5859375 C7.857500000000016 77.5859375 -8.972499999999997 77.5859375 -26.3125 77.5859375 C-28.886053336306773 71.15205415923307 -31.284417501051493 64.88492535400613 -33.328125 58.296875 C-33.588817749023434 57.46757476806641 -33.84951049804687 56.638274536132826 -34.11810302734375 55.783843994140625 C-34.93655823984288 53.17733774039209 -35.74962632325034 50.5691891250998 -36.5625 47.9609375 C-37.122037597179585 46.175668932405586 -37.68193048144474 44.390511677847314 -38.2421875 42.60546875 C-39.60305965737362 38.266898051923135 -40.95910882869423 33.92684737635659 -42.3125 29.5859375 C-36.14949404221095 24.57899657542808 -29.909121531008836 19.748902257337278 -23.4375 15.1484375 C-14.6167875913427 8.87419443704158 -14.6167875913427 8.87419443704158 -10.66015625 5.6796875 C-10.119233398437501 5.248415527343752 -9.578310546875002 4.8171435546875045 -9.02099609375 4.372802734375 C-7.600680246707157 3.2294826745162766 -6.196164529471275 2.0666115323895724 -4.79296875 0.90234375 C-2.3125 -0.4140625 -2.3125 -0.4140625 0 0 Z " fill="#FF2026" transform="translate(152.3125,132.4140625)"/>
<path d="M0 0 C3.800413169528909 2.242685678530137 7.3308904664206125 4.773000983282515 10.875 7.3984375 C12.470855087606424 8.5722933828294 14.0672253525304 9.745449147283836 15.6640625 10.91796875 C16.074790039062492 11.22001220703126 16.074790039062492 11.22001220703126 18.1533203125 12.74853515625 C20.69082457618876 14.588347977880204 23.25643112761867 16.379816077810602 25.8359375 18.16015625 C26.247672119140617 18.447415771484373 26.247672119140617 18.447415771484373 28.331298828125 19.901123046875 C29.91735105703492 21.005932417189683 31.510762146033883 22.100267752941363 33.112060546875 23.182861328125 C33.829182128906254 23.687126464843743 34.546303710937494 24.191391601562486 35.28515625 24.7109375 C35.919455566406256 25.146640625000003 36.5537548828125 25.582343750000007 37.207275390625 26.03125 C39.21170761185036 28.136515443635687 39.32982179662568 29.72342114251407 39.6875 32.5859375 C39.282989501953125 34.80619812011719 39.282989501953125 34.80619812011719 38.53173828125 37.069091796875 C38.3931690979004 37.49612144470214 38.3931690979004 37.49612144470214 37.691925048828125 39.65715026855469 C37.38366790771484 40.565642242431636 37.075410766601564 41.474134216308585 36.7578125 42.41015625 C36.602918548583986 42.8814621734619 36.602918548583986 42.8814621734619 35.819061279296875 45.26655578613281 C34.82795398633431 48.272648876287604 33.820288171300646 51.27290080590578 32.8125 54.2734375 C32.140872233878895 56.3049901140044 31.470287040407783 58.33688771841986 30.80078125 60.369140625 C29.57401820857811 64.07848638398974 28.34506502487467 67.7870316729472 27.10205078125 71.490966796875 C26.85254669189453 72.23533493041992 26.603042602539063 72.97970306396485 26.345977783203125 73.74662780761719 C25.687500000000014 75.58593749999994 25.687500000000014 75.58593749999994 24.6875 77.5859375 C7.857500000000002 77.5859375 -8.972500000000004 77.5859375 -26.3125 77.5859375 C-28.886053336306773 71.15205415923307 -31.284417501051493 64.88492535400613 -33.328125 58.296875 C-33.588817749023434 57.46757476806641 -33.849510498046875 56.638274536132826 -34.11810302734375 55.783843994140625 C-34.93655823984288 53.17733774039209 -35.74962632325035 50.5691891250998 -36.5625 47.9609375 C-37.122037597179585 46.175668932405586 -37.68193048144474 44.390511677847314 -38.2421875 42.60546875 C-39.60305965737361 38.266898051923135 -40.95910882869422 33.92684737635659 -42.3125 29.5859375 C-36.14949404221095 24.57899657542808 -29.909121531008836 19.748902257337278 -23.4375 15.1484375 C-14.6167875913427 8.87419443704158 -14.6167875913427 8.87419443704158 -10.66015625 5.6796875 C-10.119233398437501 5.248415527343752 -9.578310546875002 4.8171435546875045 -9.02099609375 4.372802734375 C-7.600680246707171 3.2294826745162766 -6.196164529471261 2.0666115323895724 -4.79296875 0.90234375 C-2.3125 -0.4140625 -2.3125 -0.4140625 0 0 Z " fill="#FF2026" transform="translate(68.3125,131.4140625)"/>
<path d="M0 0 C3.800413169528909 2.242685678530144 7.3308904664206125 4.773000983282522 10.875 7.3984375 C12.47085508760643 8.5722933828294 14.0672253525304 9.745449147283836 15.6640625 10.91796875 C16.0747900390625 11.220012207031246 16.0747900390625 11.220012207031246 18.1533203125 12.74853515625 C20.69082457618876 14.588347977880218 23.25643112761867 16.379816077810602 25.8359375 18.16015625 C26.247672119140617 18.447415771484373 26.247672119140617 18.447415771484373 28.331298828125 19.901123046875 C29.91735105703492 21.00593241718967 31.510762146033883 22.10026775294135 33.112060546875 23.182861328125 C33.829182128906254 23.687126464843743 34.546303710937494 24.1913916015625 35.28515625 24.7109375 C35.919455566406256 25.146640625000003 36.5537548828125 25.582343750000007 37.207275390625 26.03125 C39.21170761185036 28.136515443635673 39.32982179662568 29.72342114251407 39.6875 32.5859375 C39.282989501953125 34.80619812011717 39.282989501953125 34.80619812011717 38.53173828125 37.069091796875 C38.3931690979004 37.49612144470214 38.3931690979004 37.49612144470214 37.691925048828125 39.65715026855469 C37.38366790771484 40.565642242431636 37.075410766601564 41.474134216308585 36.7578125 42.41015625 C36.602918548583986 42.88146217346191 36.602918548583986 42.88146217346191 35.819061279296875 45.26655578613281 C34.82795398633431 48.272648876287604 33.820288171300646 51.27290080590578 32.8125 54.2734375 C32.140872233878895 56.3049901140044 31.470287040407783 58.336887718419874 30.80078125 60.369140625 C29.57401820857811 64.07848638398976 28.34506502487467 67.7870316729472 27.10205078125 71.490966796875 C26.85254669189453 72.23533493041992 26.603042602539063 72.97970306396485 26.345977783203125 73.74662780761719 C25.687500000000014 75.58593749999996 25.687500000000014 75.58593749999996 24.6875 77.5859375 C7.857500000000002 77.5859375 -8.972500000000004 77.5859375 -26.3125 77.5859375 C-28.886053336306773 71.15205415923307 -31.28441750105149 64.88492535400613 -33.328125 58.296875 C-33.588817749023434 57.46757476806641 -33.849510498046875 56.63827453613281 -34.11810302734375 55.783843994140625 C-34.93655823984288 53.17733774039209 -35.74962632325035 50.56918912509981 -36.5625 47.9609375 C-37.12203759717958 46.175668932405586 -37.68193048144474 44.3905116778473 -38.2421875 42.60546875 C-39.60305965737361 38.26689805192312 -40.95910882869422 33.92684737635659 -42.3125 29.5859375 C-36.14949404221095 24.57899657542808 -29.909121531008832 19.748902257337278 -23.4375 15.1484375 C-14.616787591342696 8.874194437041574 -14.616787591342696 8.874194437041574 -10.66015625 5.6796875 C-10.119233398437501 5.248415527343752 -9.578310546875002 4.817143554687497 -9.02099609375 4.372802734375 C-7.600680246707171 3.229482674516291 -6.196164529471261 2.0666115323895795 -4.79296875 0.90234375 C-2.3125 -0.4140625 -2.3125 -0.4140625 0 0 Z " fill="#FF2026" transform="translate(42.3125,50.4140625)"/>
<path d="M0 0 C3.800413169528909 2.242685678530143 7.3308904664206125 4.77300098328252 10.875 7.3984375 C12.470855087606424 8.572293382829404 14.0672253525304 9.745449147283832 15.6640625 10.91796875 C16.074790039062492 11.22001220703125 16.074790039062492 11.22001220703125 18.1533203125 12.74853515625 C20.69082457618876 14.588347977880215 23.25643112761867 16.3798160778106 25.8359375 18.16015625 C26.247672119140617 18.447415771484373 26.247672119140617 18.447415771484373 28.331298828125 19.901123046875 C29.91735105703492 21.00593241718967 31.51076214603387 22.100267752941352 33.112060546875 23.182861328125 C33.82918212890627 23.68712646484375 34.54630371093748 24.1913916015625 35.28515625 24.7109375 C35.91945556640627 25.146640625 36.553754882812484 25.58234375 37.207275390625 26.03125 C39.21170761185036 28.136515443635677 39.32982179662568 29.723421142514074 39.6875 32.5859375 C39.282989501953125 34.80619812011717 39.282989501953125 34.80619812011717 38.53173828125 37.069091796875 C38.3931690979004 37.49612144470215 38.3931690979004 37.49612144470215 37.691925048828125 39.65715026855469 C37.38366790771482 40.56564224243164 37.07541076660158 41.47413421630859 36.7578125 42.41015625 C36.602918548584 42.88146217346191 36.602918548584 42.88146217346191 35.819061279296875 45.26655578613281 C34.82795398633431 48.272648876287604 33.82028817130066 51.27290080590578 32.8125 54.2734375 C32.140872233878895 56.3049901140044 31.470287040407783 58.336887718419874 30.80078125 60.369140625 C29.57401820857811 64.07848638398976 28.345065024874657 67.7870316729472 27.10205078125 71.490966796875 C26.85254669189453 72.23533493041992 26.603042602539063 72.97970306396485 26.345977783203125 73.74662780761719 C25.6875 75.58593749999996 25.6875 75.58593749999996 24.6875 77.5859375 C7.857500000000002 77.5859375 -8.972499999999997 77.5859375 -26.3125 77.5859375 C-28.886053336306773 71.15205415923307 -31.284417501051493 64.88492535400613 -33.328125 58.296875 C-33.588817749023434 57.467574768066406 -33.84951049804687 56.63827453613281 -34.11810302734375 55.783843994140625 C-34.93655823984288 53.17733774039209 -35.74962632325034 50.56918912509981 -36.5625 47.9609375 C-37.122037597179585 46.17566893240559 -37.68193048144474 44.3905116778473 -38.2421875 42.60546875 C-39.60305965737362 38.26689805192312 -40.95910882869423 33.92684737635659 -42.3125 29.5859375 C-36.14949404221095 24.578996575428082 -29.909121531008836 19.748902257337285 -23.4375 15.1484375 C-14.6167875913427 8.874194437041574 -14.6167875913427 8.874194437041574 -10.66015625 5.6796875 C-10.119233398437501 5.24841552734375 -9.578310546875002 4.8171435546875 -9.02099609375 4.372802734375 C-7.600680246707171 3.2294826745162872 -6.196164529471261 2.0666115323895773 -4.79296875 0.90234375 C-2.3125 -0.4140625 -2.3125 -0.4140625 0 0 Z " fill="#FF2026" transform="translate(109.3125,0.4140625)"/>
<path d="M0 0 C5.939999999999998 0 11.879999999999995 0 18 0 C18 11.219999999999999 18 22.439999999999998 18 34 C28.889999999999986 34 39.78 34 51 34 C51 22.78 51 11.560000000000002 51 0 C56.94 0 62.879999999999995 0 69 0 C69 28.710000000000008 69 57.42 69 87 C63.06 87 57.120000000000005 87 51 87 C51 74.46 51 61.92 51 49 C40.110000000000014 49 29.22 49 18 49 C18 61.53999999999999 18 74.08 18 87 C12.060000000000002 87 6.1200000000000045 87 0 87 C0 58.28999999999999 0 29.58 0 0 Z " fill="#A6A7A5" transform="translate(173,41)"/>
<path d="M0 0 C113.85000000000002 0 227.70000000000005 0 345 0 C345 1.6500000000000057 345 3.3000000000000114 345 5 C231.14999999999998 5 117.29999999999995 5 0 5 C0 3.3499999999999943 0 1.6999999999999886 0 0 Z " fill="#FF2126" transform="translate(174,141)"/>
<path d="M0 0 C5.1768749999999955 -0.06187500000000057 10.353749999999991 -0.12375000000000114 15.6875 -0.1875 C17.312604980468734 -0.21481201171874886 18.937709960937525 -0.24212402343749773 20.612060546875 -0.270263671875 C21.89894775390627 -0.27775634765625057 23.185834960937484 -0.28524902343750114 24.51171875 -0.29296875 C25.82615966796874 -0.3086791992187443 27.140600585937477 -0.32438964843750284 28.494873046875 -0.340576171875 C33.309897006065 0.1272763337369014 35.775461893526426 1.9078443915235823 39.3125 5.0625 C41.77959298056487 9.357069262464805 41.908881611498316 13.162646629711475 41 18 C39.591699307898296 20.74837920534732 38.04867030472991 22.644029149560623 36 25 C36.38156249999997 25.103125000000006 36.38156249999997 25.103125000000006 38.3125 25.625 C41.94925269499623 27.485664169532967 42.63436272671282 29.190590763988396 44 33 C44.56207434974226 38.24602726426096 43.88437791574148 41.577287195863065 41 46 C35.85844739371055 51.50880636388155 34.28950201471906 51.07894422058678 26 52 C17.420000000000016 52 8.839999999999975 52 0 52 C0 34.84 0 17.680000000000007 0 0 Z M11 9 C11 12.629999999999995 11 16.260000000000005 11 20 C13.604443483605621 20.053947045690336 16.207769975822714 20.093644694463904 18.8125 20.125 C19.181494140624977 20.13337890625 19.181494140624977 20.13337890625 21.048828125 20.17578125 C24.912464260433467 20.210746282899848 26.70903668217028 20.1939755452198 30 18 C31.08252116680501 15.501874230450042 31.137863989667494 14.402103303196867 30.25 11.8125 C29 10 29 10 26 9 C23.427341817829188 8.929708792836863 20.883585687734353 8.90629167699295 18.3125 8.9375 C17.61060546875001 8.942011718749995 16.908710937500018 8.946523437500005 16.185546875 8.951171875 C14.456994618156386 8.96293073389009 12.728486345032763 8.980865464815139 11 9 Z M11 30 C11 33.96000000000001 11 37.92 11 42 C13.750593808630867 42.0810764550579 16.49879021271272 42.140528125582904 19.25 42.1875 C20.02730468750002 42.21263671874999 20.804609374999984 42.237773437499996 21.60546875 42.263671875 C25.095204189330673 42.30841207294014 27.385769572722722 42.323329370880444 30.515625 40.67578125 C32 39 32 39 32.5 36 C32 33 32 33 30.515625 31.32421875 C26.791029679599546 29.36360102699419 23.387904254948126 29.67868717583501 19.25 29.8125 C18.45722656250001 29.82603515625 17.664453125000023 29.8395703125 16.84765625 29.853515625 C14.898144357943806 29.88874776762752 12.94898374139649 29.94255178928198 11 30 Z " fill="#A6A7A5" transform="translate(268,76)"/>
<path d="M0 0 C2.5884782343954384 2.1559561643807967 4.0669155590857144 4.239342310595234 5.51953125 7.265625 C5.76953125 10.640625 5.76953125 10.640625 5.51953125 13.265625 C1.8895312500000045 13.595624999999998 -1.740468749999991 13.925624999999997 -5.48046875 14.265625 C-5.934218750000014 13.29625 -6.387968750000027 12.326875000000001 -6.85546875 11.328125 C-8.48046875 8.265625 -8.48046875 8.265625 -10.48046875 7.265625 C-14.720179334933903 7.030085523059228 -17.84225177463736 6.93716613576791 -21.48046875 9.265625 C-21.41796875 11.078125 -21.41796875 11.078125 -20.48046875 13.265625 C-17.162556213617506 15.075395474390447 -13.968972245594557 16.12605257268727 -10.3359375 17.1640625 C2.9613917151162923 20.96329941860465 2.9613917151162923 20.96329941860465 6.89453125 27.578125 C8.063513885848977 32.60475033415061 8.094325885461217 36.63704019952664 6.39453125 41.453125 C3.2726691970133857 46.13591807947991 0.04026549869445262 49.06223109516051 -5.35546875 50.578125 C-13.079873159333374 52.09959859577779 -20.301262138659695 51.63913178559636 -27.48046875 48.265625 C-33.08794787283233 44.008094554886554 -34.44269742937672 39.011138584051196 -35.48046875 32.265625 C-33.66546875 32.10062500000001 -33.66546875 32.10062500000001 -24.48046875 31.265625 C-24.067968749999977 32.37937500000001 -23.65546875000001 33.49312499999999 -23.23046875 34.640625 C-22.245331065395987 36.88782847409669 -21.67770320281545 38.09761046612016 -19.79296875 39.703125 C-15.326251581799738 40.7896237706433 -11.188193699554688 41.07679435103847 -6.98046875 39.078125 C-5.48046875 37.265625 -5.48046875 37.265625 -5.23046875 34.578125 C-5.312968749999982 33.815 -5.3954687500000205 33.051874999999995 -5.48046875 32.265625 C-10.97754086856213 29.708847270436223 -16.54909796405383 28.029457127735824 -22.39453125 26.42578125 C-27.167983598436763 24.631204860777572 -29.81432897614343 22.420267274684733 -32.35546875 18.015625 C-34.09991801059846 12.200794131338512 -33.51198615369225 8.368333553680316 -30.85546875 2.953125 C-23.750197921257154 -5.087049885156347 -8.939246462566587 -5.53103702694753 0 0 Z " fill="#A6A7A5" transform="translate(366.48046875,77.734375)"/>
<path d="M0 0 C0.6902929687499864 -0.01611328125 1.3805859374999727 -0.0322265625 2.091796875 -0.048828125 C8.014667975161615 -0.054442220829542975 12.066148987327495 1.3716031821239625 16.3125 5.5 C18.541634926164534 9.082538274193084 19.2232577699923 12.186225702461996 20.0625 16.3125 C16.432500000000005 16.6425 12.802500000000009 16.972499999999997 9.0625 17.3125 C8.443750000000023 16.343125 7.824999999999989 15.373750000000001 7.1875 14.375 C5.0625 11.3125 5.0625 11.3125 3.0625 10.3125 C-0.776867677146754 10.170301197142706 -4.257666386352923 10.134953243632935 -7.9375 11.3125 C-7.875 13.625 -7.875 13.625 -6.9375 16.3125 C-3.6246718674973977 18.19478871164921 -0.45425006583354843 19.165499049595184 3.20703125 20.20703125 C16.462567995680843 24.00947664790388 16.462567995680843 24.00947664790388 20.18359375 30.16796875 C22.01488173888663 34.63631144288351 21.8553556069254 39.80099930500883 20.41015625 44.37890625 C18.547125605389738 48.08098002019125 16.025796490327366 50.73710175483632 12.3125 52.59375 C4.703892297649418 55.024277460473115 -3.4741176089767123 55.06216719669277 -10.9375 52.3125 C-16.307668761593106 49.52414314301896 -18.51899983164344 46.707615760179976 -20.9375 41.3125 C-21.1875 37.875 -21.1875 37.875 -20.9375 35.3125 C-19.287500000000023 35.14750000000001 -19.287500000000023 35.14750000000001 -10.9375 34.3125 C-10.731249999999989 34.7765625 -10.731249999999989 34.7765625 -9.6875 37.125 C-7.147912147505451 41.75067787418655 -7.147912147505451 41.75067787418655 -3.9375 43.3125 C-0.2823696560321878 43.78729012715458 2.974525616276992 43.647261348837844 6.5 42.5625 C8.0625 41.3125 8.0625 41.3125 9.0625 39.4375 C9.0625 37.3125 9.0625 37.3125 7.55078125 35.328125 C4.37919045390845 32.75898708668251 1.1213776953462116 31.939477478186674 -2.75 30.9375 C-9.117127735040242 29.134590729092565 -13.379065139673571 27.315660212553396 -17.9375 22.3125 C-19.938280911003176 18.31093817799369 -19.5710671030252 13.65183695090829 -18.9375 9.3125 C-16.950235248930426 5.538030707700074 -14.488528198332745 3.1291190867546987 -10.7265625 1.1484375 C-7.1349036128788725 0.07194590077882879 -3.71440004432759 -0.017244197048867704 0 0 Z " fill="#FFBF00" transform="translate(494.9375,74.6875)"/>
<path d="M0 0 C3.6299999999999955 0 7.259999999999991 0 11 0 C11.014582519531245 1.1354223632812506 11.029165039062491 2.270844726562501 11.044189453125 3.440673828125 C11.102136756306209 7.650956087755517 11.179369413154632 11.860701496699704 11.262451171875 16.070556640625 C11.295717401339232 17.893059192394887 11.323744062837989 19.715665191267647 11.346435546875 21.538330078125 C11.37995081333446 24.15751249739509 11.43226351773194 26.775745477901495 11.48828125 29.39453125 C11.494671173095696 30.210251007080075 11.501061096191393 31.02597076416015 11.507644653320313 31.866409301757813 C11.656586411505941 37.589281339821255 11.656586411505941 37.589281339821255 13.402023315429688 39.67680358886719 C16.444921727147005 42.1964600373646 19.04093665333744 42.211382439062334 22.9296875 42.42578125 C26.076666819659067 41.77857229557955 27.061405128163074 40.55677305238049 29 38 C29.417799709391204 34.982723744521905 29.60479843448462 32.31613280385912 29.609375 29.296875 C29.625911254882794 28.459085083007807 29.642447509765645 27.621295166015628 29.65948486328125 26.75811767578125 C29.707974993855714 24.088670628688433 29.72933745317073 21.419793260082685 29.75 18.75 C29.778158927650054 16.937471323673392 29.80808625143061 15.12496919670302 29.83984375 13.3125 C29.91373394025851 8.875046905078932 29.963302139489315 4.437910234858222 30 0 C33.629999999999995 0 37.25999999999999 0 41 0 C41.07455447668087 5.407684708584057 41.128792265293896 10.8150654773426 41.164794921875 16.22314453125 C41.17981496260103 18.06011166262725 41.200237086133086 19.897043336594123 41.226318359375 21.73388671875 C41.26300202326223 24.385180544011178 41.279794377350754 27.035997317717033 41.29296875 29.6875 C41.30845260620117 30.499287109375004 41.323936462402344 31.311074218750008 41.33988952636719 32.1474609375 C41.34151740126481 37.7525597849757 40.31692446526279 41.87884314391047 38 47 C33.236471764290286 51.69376945401518 27.652172207707736 52.86956530126028 21.1875 53.1875 C15.105982588790482 53.0957035107742 8.763384632743396 51.9694871939528 4 48 C0.1438231169233859 42.2994510105182 -0.5577218925254215 37.216204030856844 -0.390625 30.46875 C-0.3849652099609102 29.59222778320313 -0.3793054199218773 28.715705566406257 -0.37347412109375 27.8126220703125 C-0.3512663632232602 25.041168120133165 -0.30110159580959817 22.271056346353646 -0.25 19.5 C-0.22991473887248048 17.609393807418428 -0.21166753582321007 15.718767141164108 -0.1953125 13.828125 C-0.15145307025090915 9.21824093672663 -0.08253652018782986 4.609347204334895 0 0 Z " fill="#A6A7A5" transform="translate(428,76)"/>
<path d="M0 0 C3.0625 1.5 3.0625 1.5 5 3 C5.319687499999986 2.7524999999999977 5.319687499999986 2.7524999999999977 6.9375 1.5 C11.03593979753714 -0.5073990845079948 14.509815879265659 -0.7564984116454525 19 0 C21.87029868593811 1.7939366787113045 23.49131638143683 2.9826327628735783 25 6 C25.08491499580623 7.886391197158559 25.10719300429969 9.77578514866957 25.09765625 11.6640625 C25.094433593749955 12.785546874999994 25.091210937500023 13.907031249999989 25.087890625 15.0625 C25.083701171874964 15.650312500000013 25.083701171874964 15.650312500000013 25.0625 18.625 C25.057988281250005 19.80835937500001 25.05347656250001 20.99171874999999 25.048828125 22.2109375 C25.03701478268647 25.140646393752405 25.019078896736573 28.070329412222605 25 31 C21.039999999999964 31 17.079999999999984 31 13 31 C12.670000000000016 24.400000000000006 12.340000000000032 17.80000000000001 12 11 C11.009999999999991 10.669999999999987 10.019999999999982 10.340000000000003 9 10 C8.340000000000032 10.330000000000013 7.680000000000007 10.659999999999997 7 11 C6.670000000000016 17.599999999999994 6.340000000000032 24.19999999999999 6 31 C2.0400000000000205 31 -1.920000000000016 31 -6 31 C-6.329999999999984 24.069999999999993 -6.660000000000025 17.139999999999986 -7 10 C-8.649999999999977 10.330000000000013 -10.300000000000011 10.659999999999997 -12 11 C-13.118238154500887 13.236476309001802 -13.193960612998637 14.64891529225801 -13.31640625 17.1328125 C-13.358300781250023 17.9384765625 -13.400195312499989 18.744140625 -13.443359375 19.57421875 C-13.463017578125005 19.99509765625001 -13.463017578125005 19.99509765625001 -13.5625 22.125 C-13.605683593749973 22.974492187500005 -13.648867187500002 23.82398437500001 -13.693359375 24.69921875 C-13.799542359698819 26.799282225154343 -13.900284965111098 28.899619477872164 -14 31 C-17.95999999999998 31 -21.920000000000016 31 -26 31 C-26 21.099999999999994 -26 11.199999999999989 -26 1 C-22.370000000000005 1 -18.74000000000001 1 -15 1 C-14.670000000000016 1.6599999999999966 -14.339999999999975 2.319999999999993 -14 3 C-13.360625000000027 2.5049999999999955 -12.721249999999998 2.009999999999991 -12.0625 1.5 C-7.961969096528435 -0.5084232996595404 -4.493933912348382 -0.6338640961359374 0 0 Z " fill="#FF2026" transform="translate(492,172)"/>
<path d="M0 0 C4.487340282196158 2.7251444203036783 7.793389976995172 6.0958414570597625 9.25 11.25 C9.311874999999986 11.951250000000002 9.373749999999973 12.652500000000003 9.4375 13.375 C5.789568162399803 14.64753436195356 2.2438456964981697 15.703291935912091 -1.5625 16.375 C-2.1399999999999864 15.426249999999996 -2.7174999999999727 14.477499999999992 -3.3125 13.5 C-6.440548780487802 9.15548780487805 -6.440548780487802 9.15548780487805 -9.5625 8.375 C-13.59972961684889 8.316610315458803 -16.609733221629824 8.698034131158053 -19.9375 11.0625 C-24.11870611307046 17.012677930138736 -24.174635924334723 23.340295091772305 -23.5625 30.375 C-22.98660268151707 33.646483926844155 -22.258403556827943 36.50156340748772 -20.5625 39.375 C-15.932697802611415 42.17441528214192 -11.647516913241077 41.523229625570565 -6.5625 40.375 C-3.1891550113011817 37.88937737674823 -1.8744937889052267 35.31098136671571 -0.5625 31.375 C0.8976529127514823 31.657416406993093 2.3555979322652547 31.951266137530723 3.8125 32.25 C4.624609374999977 32.41242187500001 5.436718750000011 32.57484375 6.2734375 32.7421875 C8.4375 33.375 8.4375 33.375 10.4375 35.375 C7.424613750945809 42.09309529576336 5.1222427697315425 47.11969020643011 -1.76953125 50.4375 C-8.239684983779512 52.60929985469522 -16.149924185436817 52.57270402782089 -22.58984375 50.3125 C-28.796301358608957 46.87794902260437 -32.82803838374588 42.36439283117265 -35.1640625 35.64453125 C-36.786916744283474 26.400626191875446 -37.06035050704344 15.324351061003767 -31.5625 7.375 C-24.01479219013396 -2.059634762332564 -11.191453452604264 -5.054204785047077 0 0 Z " fill="#A6A7A5" transform="translate(412.5625,76.625)"/>
<path d="M0 0 C2.2481249999999875 -0.05156249999998863 2.2481249999999875 -0.05156249999998863 13.625 -0.3125 C15.032172851562507 -0.35802001953123863 16.439345703125014 -0.4035400390625057 17.88916015625 -0.450439453125 C28.19905482604861 -0.5651912608098257 28.19905482604861 -0.5651912608098257 31.8359375 2.39453125 C35.70836335047511 7.056820134958315 35.520981276053135 11.101747696112625 35 17 C33.398755434538145 20.762924728835344 31.454441891395277 22.840973817877966 28 25 C23.099310371116758 26.633563209627738 18.142615241151134 26.05529693807688 13 26 C13 30.94999999999999 13 35.900000000000006 13 41 C8.710000000000008 41 4.4199999999999875 41 0 41 C0 27.47 0 13.939999999999998 0 0 Z M13 9 C13 11.639999999999986 13 14.280000000000001 13 17 C18.625 17.25 18.625 17.25 22 15 C21.125 10.125 21.125 10.125 20 9 C17.667025668643305 8.959070625765662 15.332947753997757 8.95758276810912 13 9 Z " fill="#FF2026" transform="translate(205,162)"/>
<path d="M0 0 C3.355700980651193 2.432883210972136 5.647071454605111 5.106642909210166 7.5 8.8125 C7.5 11.782499999999999 7.5 14.752499999999998 7.5 17.8125 C0.2400000000000091 17.8125 -7.019999999999982 17.8125 -14.5 17.8125 C-13.840000000000003 19.132499999999993 -13.180000000000007 20.452499999999986 -12.5 21.8125 C-10.500452539885885 21.855043562981166 -8.4995836369269 21.853307829325047 -6.5 21.8125 C-6.170000000000016 21.482500000000016 -5.839999999999975 21.152500000000003 -5.5 20.8125 C-3.690727192856798 20.687622422620933 -1.8760389324665994 20.636791540523177 -0.0625 20.625 C0.9262109375000023 20.61082031250001 1.9149218750000045 20.596640624999992 2.93359375 20.58203125 C5.5 20.8125 5.5 20.8125 7.5 22.8125 C3.175833089447906 27.815992225804962 -0.3725269464211465 30.27243891665225 -7.0625 30.875 C-17.603835917109564 31.08193153647906 -17.603835917109564 31.08193153647906 -22.21484375 27.46875 C-26.18775789472673 23.505183888554967 -27.435153517302695 19.80514234338682 -27.671875 14.2421875 C-27.3345879139857 9.474174602252276 -25.65005044511321 6.230895548972967 -22.625 2.5 C-16.244835835223313 -2.566600954381471 -7.469525465918366 -2.5343032830794527 0 0 Z M-12.8125 7 C-14.5 8.8125 -14.5 8.8125 -14.5 11.8125 C-11.199999999999989 11.8125 -7.899999999999977 11.8125 -4.5 11.8125 C-5.5 7.8125 -5.5 7.8125 -7.8125 6.375 C-10.5 5.8125 -10.5 5.8125 -12.8125 7 Z " fill="#FF2026" transform="translate(269.5,173.1875)"/>
<path d="M0 0 C3.291002341371893 1.973235843685643 5.075632205431759 3.627445967638863 6.4375 7.3125 C6.6025000000000205 8.962500000000006 6.6025000000000205 8.962500000000006 7.4375 17.3125 C-0.152499999999975 17.3125 -7.742500000000007 17.3125 -15.5625 17.3125 C-14.902499999999975 18.632499999999993 -14.242500000000007 19.952499999999986 -13.5625 21.3125 C-11.562952539885885 21.355043562981166 -9.5620836369269 21.353307829325047 -7.5625 21.3125 C-7.232500000000016 20.982500000000016 -6.902499999999975 20.652500000000003 -6.5625 20.3125 C-4.753227192856798 20.187622422620933 -2.9385389324665994 20.136791540523177 -1.125 20.125 C-0.13628906249999773 20.11082031250001 0.8524218750000045 20.096640624999992 1.87109375 20.08203125 C4.4375 20.3125 4.4375 20.3125 6.4375 22.3125 C3.578186308202021 26.91226550419674 0.7542710231794558 28.37439244852135 -4.26953125 29.80859375 C-10.75864035591411 31.234650095251993 -16.646731350989114 30.218893108024673 -22.5625 27.3125 C-27.60113596916193 22.147898131608997 -27.906393593919233 18.30730727465169 -27.84765625 11.30078125 C-27.372317160688795 6.319488053793378 -25.144894690691046 3.7030892736375733 -21.5 0.5 C-15.38870541075147 -3.2456321676039295 -6.3961802673294414 -2.9484251046425527 0 0 Z M-13.8125 6.5625 C-14.389999999999986 7.139999999999986 -14.967499999999973 7.717500000000001 -15.5625 8.3125 C-15.5625 9.302500000000009 -15.5625 10.29249999999999 -15.5625 11.3125 C-11.932500000000005 11.3125 -8.302500000000009 11.3125 -4.5625 11.3125 C-6.969699100112507 6.61846175478064 -6.969699100112507 6.61846175478064 -9.5 5.3125 C-11.5625 5.3125 -11.5625 5.3125 -13.8125 6.5625 Z " fill="#FF2026" transform="translate(416.5625,173.6875)"/>
<path d="M0 0 C3.9599999999999795 0 7.920000000000016 0 12 0 C12.329999999999984 6.27000000000001 12.660000000000025 12.539999999999992 13 19 C17 20 17 20 19 20 C19.329999999999984 13.400000000000006 19.660000000000025 6.800000000000011 20 0 C23.95999999999998 0 27.920000000000016 0 32 0 C32 9.900000000000006 32 19.80000000000001 32 30 C28.370000000000005 30 24.74000000000001 30 21 30 C20.670000000000016 29.00999999999999 20.339999999999975 28.02000000000001 20 27 C19.504999999999995 27.47437500000001 19.00999999999999 27.94874999999999 18.5 28.4375 C15.134857459254874 30.540714087965682 11.911693002917048 31.127882271249206 8 31 C4.790111179752614 29.870594674357392 2.7343178134911454 29.122488357545137 0.84814453125 26.2392578125 C-0.19522023731190075 23.48458260891624 -0.2266272548328061 21.30296195428386 -0.1953125 18.359375 C-0.18886718750002274 17.289453124999994 -0.18242187499998863 16.21953124999999 -0.17578125 15.1171875 C-0.159023437500025 14.006015625000003 -0.14226562499999318 12.894843750000007 -0.125 11.75 C-0.1159765625000091 10.623359375000007 -0.10695312500001819 9.496718750000014 -0.09765625 8.3359375 C-0.07410763371535722 5.557200778412096 -0.038237248819086744 2.778573414188088 0 0 Z " fill="#FF2026" transform="translate(428,173)"/>
<path d="M0 0 C3.355700980651193 2.4328832109721077 5.647071454605111 5.106642909210166 7.5 8.8125 C8.009909896721751 14.39643132803468 8.238700634587985 19.253020882536475 5.8125 24.375 C1.027875761270252 29.418252575958377 -2.9662090993037964 30.378073693101186 -9.78125 30.80859375 C-15.053461956851947 30.81616876717939 -18.329923325321033 29.82656645138843 -22.3125 26.375 C-26.642912236850748 21.30223137968912 -26.93027822275144 18.269312031300387 -26.8203125 11.765625 C-26.283392736554333 6.815486693110756 -24.068661596974493 4.1910207973412525 -20.4375 1 C-14.542859196287452 -2.612844363565756 -6.347368105127998 -2.1535713213827137 0 0 Z M-13.23046875 8.03125 C-14.830941881708384 10.276836917104674 -14.871784218866992 11.576305283062936 -14.8125 14.3125 C-14.80863281249998 15.0859375 -14.804765625000016 15.859375 -14.80078125 16.65625 C-14.5 18.8125 -14.5 18.8125 -12.5 21.8125 C-9.5 22.1875 -9.5 22.1875 -6.5 21.8125 C-4.434793677728976 18.714690516593492 -4.205229759487679 17.85845189753553 -4.1875 14.3125 C-4.170742187500025 13.5390625 -4.153984374999993 12.765625 -4.13671875 11.96875 C-4.5 9.8125 -4.5 9.8125 -5.76953125 8.03125 C-8.400514240435427 6.178277781002578 -10.599485759564573 6.178277781002578 -13.23046875 8.03125 Z " fill="#FF2026" transform="translate(358.5,173.1875)"/>
<path d="M0 0 C0 3.6299999999999955 0 7.259999999999991 0 11 C1.9800000000000182 11 3.9599999999999795 11 6 11 C6 13.969999999999999 6 16.939999999999998 6 20 C4.019999999999982 20 2.0400000000000205 20 0 20 C0.3299999999999841 23.960000000000008 0.660000000000025 27.920000000000016 1 32 C2.6499999999999773 32 4.300000000000011 32 6 32 C6.329999999999984 34.97 6.660000000000025 37.94 7 41 C5.272772717631142 41.22384381592872 3.5430399322907533 41.42839969065125 1.8125 41.625 C0.8495703125000205 41.74101562499999 -0.11335937500001592 41.857031250000006 -1.10546875 41.9765625 C-4.372204336681079 42.003013800297026 -6.169049408963986 41.62720185232658 -9 40 C-12.361023072485864 36.01197479251678 -12.374033055995483 32.18562932090467 -12.1875 27.1875 C-12.173964843750014 26.49462890625 -12.160429687500027 25.8017578125 -12.146484375 25.087890625 C-12.111388445200532 23.39158735135902 -12.057589425656431 21.695688644328925 -12 20 C-13.319999999999993 20 -14.639999999999986 20 -16 20 C-16 17.03 -16 14.060000000000002 -16 11 C-14.680000000000007 11 -13.360000000000014 11 -12 11 C-12 9.02000000000001 -12 7.039999999999992 -12 5 C-10.377500592666934 4.16180842425598 -8.751915033719627 3.3295884024632585 -7.125 2.5 C-6.220078124999986 2.0359374999999886 -5.315156249999973 1.5718750000000057 -4.3828125 1.09375 C-2 0 -2 0 0 0 Z " fill="#FF2026" transform="translate(296,162)"/>
<path d="M0 0 C3.6299999999999955 0 7.259999999999991 0 11 0 C11 17.159999999999997 11 34.31999999999999 11 52 C7.3700000000000045 52 3.740000000000009 52 0 52 C0 34.84 0 17.680000000000007 0 0 Z " fill="#A6A7A5" transform="translate(317,76)"/>
<path d="M0 0 C3.6299999999999955 0 7.259999999999991 0 11 0 C11 17.159999999999997 11 34.31999999999999 11 52 C7.3700000000000045 52 3.740000000000009 52 0 52 C0 34.84 0 17.680000000000007 0 0 Z " fill="#A6A7A5" transform="translate(251,76)"/>
<path d="M0 0 C3.9599999999999795 0 7.920000000000016 0 12 0 C12 13.530000000000001 12 27.060000000000002 12 41 C8.04000000000002 41 4.079999999999984 41 0 41 C0 27.47 0 13.939999999999998 0 0 Z " fill="#FF2026" transform="translate(371,162)"/>
<path d="M0 0 C0.660000000000025 0.3300000000000125 1.3199999999999932 0.6599999999999966 2 1 C1.4427108743670374 4.343734753797776 0.6482611140438053 7.033129994721122 -1 10 C-3.3100000000000023 10 -5.6200000000000045 10 -8 10 C-9.039037799405605 14.426824910072554 -9.31592951345516 18.789346320595428 -9.5625 23.3125 C-9.605683593749973 24.053066406249997 -9.648867187500002 24.793632812499993 -9.693359375 25.556640625 C-9.798704317685917 27.370914637924386 -9.899783159056255 29.185435496954284 -10 31 C-13.95999999999998 31 -17.920000000000016 31 -22 31 C-22 21.099999999999994 -22 11.199999999999989 -22 1 C-17.666666666666686 1 -13.333333333333314 1 -9 1 C-6.014055760565441 -0.4929721197172796 -3.2914637608358817 -0.117552277172706 0 0 Z " fill="#FF2026" transform="translate(329,172)"/>
</svg>
