<?xml version="1.0" encoding="UTF-8"?>
<!-- Generator: visioncortex VTracer 0.6.12 -->
<svg version="1.1" xmlns="http://www.w3.org/2000/svg" width="1280" height="1058">
<path d="M0 0 C3.384853636761477 0.0031473497802659844 6.7688186985404855 -0.020356509143905854 10.153564453125 -0.045654296875 C57.72919968242729 -0.18401758648089678 105.34657963105633 10.753149742601188 147.350830078125 33.315673828125 C147.70403320312494 33.5009765625 147.70403320312494 33.5009765625 149.491455078125 34.438720703125 C180.78105292747728 50.876699992863394 210.00965487264057 75.06351256577543 231.060791015625 103.581298828125 C232.3654176285072 105.33528585649651 233.70203391612517 107.06056340180744 235.046142578125 108.784423828125 C252.23613730772672 131.1163837847145 264.97403373095335 157.48449311839855 273.350830078125 184.315673828125 C273.61202636718747 185.136806640625 273.87322265625005 185.957939453125 274.142333984375 186.803955078125 C280.4258885726774 206.76850406035325 284.5264754211662 227.46287583056102 286.350830078125 248.315673828125 C286.461689453125 249.551884765625 286.57254882812504 250.788095703125 286.686767578125 252.061767578125 C291.3952745225695 314.2267849392362 291.3952745225695 314.2267849392362 282.350830078125 332.315673828125 C282.65859375 332.32034667968753 282.65859375 332.32034667968753 284.216064453125 332.343994140625 C328.46362795707614 333.15166262262267 374.00711186108674 335.441931237193 417.538330078125 343.815673828125 C418.53082763671864 344.00508544921877 419.5233251953125 344.1944970703125 420.5458984375 344.3896484375 C426.24197399871537 345.58038734656293 433.08142032634396 347.04626407634396 437.350830078125 351.315673828125 C438.96329804453217 398.38951857982397 429.62019523605454 451.59677657022905 410.350830078125 494.628173828125 C410.0428247070313 495.34046142578126 409.7348193359376 496.0527490234375 409.41748046875 496.78662109375 C406.95059397134924 502.0715272716143 404.1161778722005 504.8757177854543 398.509033203125 507.02001953125 C396.3877172106045 507.7028767810547 394.2627133997314 508.27474282673114 392.100830078125 508.815673828125 C391.27421875000005 509.02506591796873 390.4476074218751 509.2344580078125 389.595947265625 509.4501953125 C328.08005640442525 524.3646834006712 256.47198191572147 526.3187762999409 193.350830078125 525.315673828125 C193.0665112304688 525.917666015625 192.78219238281247 526.519658203125 192.4892578125 527.139892578125 C190.88264577441544 530.2104751394395 188.66293879235843 532.7051465818572 186.413330078125 535.315673828125 C185.92461425781255 535.8874536132812 185.4358984375 536.4592333984375 184.932373046875 537.04833984375 C180.34940489397718 542.3784831507833 175.62280050532968 547.5698712868252 170.833740234375 552.715087890625 C169.22999324187197 554.4460996263592 167.63952016363965 556.1887362321116 166.050048828125 557.932861328125 C160.9911056733696 563.4645756343486 155.99980880154067 568.880381530332 150.229736328125 573.686767578125 C148.04386331393437 575.5817967816957 146.05515184424985 577.6169399839437 144.038330078125 579.690673828125 C140.01165043177002 583.7655359659748 135.7440613128506 587.3765427716248 131.272705078125 590.952392578125 C128.77491684777533 592.9726624703196 126.3376979576833 595.0457255555458 123.912841796875 597.15234375 C110.60940642795435 608.6571746184336 96.15796186302202 618.8453011113413 81.350830078125 628.315673828125 C80.97112060546874 628.55962890625 80.97112060546874 628.55962890625 79.049560546875 629.794189453125 C-3.9719043990406817 682.8829701432069 -103.25143322984263 710.0472201685877 -212.001220703125 691.908935546875 C-235.83342639493964 686.5694315978515 -258.66524087977496 678.9886595016038 -280.649169921875 668.315673828125 C-281.3673388671875 667.969560546875 -282.0855078125 667.623447265625 -282.825439453125 667.266845703125 C-305.62365303098835 656.1395861008708 -326.4094342797123 640.8831449280481 -344.649169921875 623.315673828125 C-345.308525390625 622.6835498046875 -345.967880859375 622.05142578125 -346.647216796875 621.400146484375 C-355.60966601196463 612.7624532914365 -364.070201301758 604.0263641824639 -371.431396484375 593.973388671875 C-372.6165063070878 592.3601377303714 -373.83170844497994 590.7691291472564 -375.047607421875 589.178955078125 C-410.3764201040308 542.2960652923712 -426.9155634998894 482.5769627976623 -426.779541015625 424.422119140625 C-426.77416597106287 421.6886646605652 -426.779524981869 418.955373443022 -426.785888671875 416.221923828125 C-426.78522797973335 414.44848597319094 -426.7839470020788 412.67504821796683 -426.781982421875 410.901611328125 C-426.78400665283203 410.1023422241211 -426.78603088378907 409.3030731201172 -426.7881164550781 408.4795837402344 C-426.76342348685193 402.38452293451945 -426.2762362208616 396.3767187893208 -425.649169921875 390.315673828125 C-425.9548313140869 390.3116304016113 -425.9548313140869 390.3116304016113 -427.5016632080078 390.2911682128906 C-463.3815700891457 389.8081395661591 -499.0735339708146 389.22572853031545 -534.774169921875 385.440673828125 C-535.5055819702148 385.36553558349607 -536.2369940185547 385.2903973388672 -536.9905700683594 385.2129821777344 C-545.0258868155895 384.3730253764814 -552.8899748455023 383.18891498530417 -560.766357421875 381.370361328125 C-561.4534378051758 381.2131057739258 -562.1405181884766 381.05585021972655 -562.8484191894531 380.8938293457031 C-567.3827754848734 379.789890097156 -571.4677664283338 378.35416622636006 -575.649169921875 376.315673828125 C-579.958069647201 367.6978743774729 -576.1971617660776 351.0990737884771 -575.399169921875 341.628173828125 C-575.3658808898925 341.226630859375 -575.3658808898925 341.226630859375 -575.1974182128906 339.194580078125 C-572.0019155392949 301.05753358741725 -565.7406213956809 262.9473761307757 -550.961669921875 227.440673828125 C-550.6054858398438 226.572490234375 -550.2493017578125 225.704306640625 -549.88232421875 224.809814453125 C-547.4524406095097 219.23976493279764 -545.0586784374914 216.06752074498868 -539.528076171875 213.225830078125 C-490.9708958289808 195.4570136625971 -433.9008917554622 194.67617238784675 -382.78085231781006 190.14013481140137 C-378.3199589517715 189.74399947903595 -373.8602985510013 189.3356977692111 -369.40087890625 188.92333984375 C-365.25121973154523 188.54064255482723 -361.10346607683994 188.19806015560533 -356.9462890625 187.9091796875 C-355.32769341236354 187.77805502542643 -353.7091201666775 187.6466533178511 -352.090576171875 187.514892578125 C-351.74293212890626 187.4973391723633 -351.74293212890626 187.4973391723633 -349.983642578125 187.40850830078125 C-346.20509172280856 187.07071859477136 -344.1190205451644 186.1632462391027 -341.54541015625 183.49365234375 C-338.168958562154 179.21533849286536 -338.168958562154 179.21533849286536 -336.805419921875 176.831298828125 C-334.8197345466134 173.52542045880364 -332.5608584836425 170.5938108028463 -330.086669921875 167.628173828125 C-329.355771484375 166.741298828125 -328.624873046875 165.854423828125 -327.871826171875 164.940673828125 C-324.9809830819237 161.52653225264643 -322.0034234625866 158.1993496360682 -318.985107421875 154.897705078125 C-317.74212318478396 153.52377099665813 -316.5043125148634 152.144339662213 -315.30810546875 150.7294921875 C-309.74984155137093 144.19429494046744 -303.6699791432378 138.18554122020373 -297.59765625 132.1337890625 C-295.71588718033007 130.25737907626473 -293.8395225414559 128.37568413735275 -291.963623046875 126.493408203125 C-286.02901850058714 120.55526407262158 -280.0835013703561 114.71767765323018 -273.649169921875 109.315673828125 C-272.684951171875 108.470048828125 -271.720732421875 107.624423828125 -270.727294921875 106.753173828125 C-261.0786327273139 98.43719978198394 -250.9226282109687 90.83923791669314 -240.649169921875 83.315673828125 C-240.28283447265625 83.04666259765625 -240.28283447265625 83.04666259765625 -238.428955078125 81.685302734375 C-180.69082759595562 39.4905096405362 -112.51851513652207 11.709910548253488 -41.649169921875 2.315673828125 C-41.30569015502931 2.2690611267089844 -41.30569015502931 2.2690611267089844 -39.567474365234375 2.033172607421875 C-26.38307586146243 0.2882197455193909 -13.28906442717539 -0.025696822998906743 0 0 Z " fill="#D4D3D1" transform="translate(724.649169921875,-0.315673828125)"/>
<path d="M0 0 C3.384853636761477 0.0031473497802659844 6.7688186985404855 -0.020356509143905854 10.153564453125 -0.045654296875 C57.72919968242729 -0.18401758648089678 105.34657963105633 10.753149742601188 147.350830078125 33.315673828125 C147.70403320312494 33.5009765625 147.70403320312494 33.5009765625 149.491455078125 34.438720703125 C180.78105292747728 50.876699992863394 210.00965487264057 75.06351256577543 231.060791015625 103.581298828125 C232.3654176285072 105.33528585649651 233.70203391612517 107.06056340180744 235.046142578125 108.784423828125 C252.23613730772672 131.1163837847145 264.97403373095335 157.48449311839855 273.350830078125 184.315673828125 C273.61202636718747 185.136806640625 273.87322265625005 185.957939453125 274.142333984375 186.803955078125 C280.4258885726774 206.76850406035325 284.5264754211662 227.46287583056102 286.350830078125 248.315673828125 C286.461689453125 249.551884765625 286.57254882812504 250.788095703125 286.686767578125 252.061767578125 C291.3952745225695 314.2267849392362 291.3952745225695 314.2267849392362 282.350830078125 332.315673828125 C266.21818225125276 332.5060669968135 250.1046748252386 331.9522292652989 233.98248291015625 331.44683837890625 C222.25291092780378 331.07976923984404 210.52292919577144 330.72723349826094 198.79255723953247 330.3867337703705 C197.20929359962054 330.3406571142273 195.62603821154028 330.2942956871168 194.04279279708862 330.24759697914124 C166.77430759585616 329.4442384123873 139.5277981076971 329.16384370094903 112.24816966056824 329.181348323822 C106.87203477613991 329.18395541551394 101.49590122275367 329.1815114939322 96.11976623535156 329.1799621582031 C87.08993212206269 329.17816166254005 78.06010628228466 329.1804876784449 69.0302734375 329.185302734375 C59.895827874606425 329.1901190232829 50.76139866939775 329.1901346853581 41.626953125 329.185302734375 C-54.781529326383406 329.13564293000053 -54.781529326383406 329.13564293000053 -100.04352188110352 330.2528991699219 C-104.11395458908476 330.3509630749406 -108.18465466995417 330.43545455133665 -112.25537109375 330.520751953125 C-120.40828340711778 330.69482580837024 -128.56007947963178 330.8998089239609 -136.711669921875 331.128173828125 C-137.42202140808104 331.1479981994629 -138.13237289428707 331.1678225708008 -138.86425018310547 331.18824768066406 C-220.93253210658833 333.496276046296 -302.8837260743651 339.044533538419 -384.65500926971436 346.292667388916 C-387.48602763757486 346.54334950379365 -390.31728626258496 346.7912589774775 -393.1485538482666 347.0391082763672 C-395.052970178746 347.2073386649299 -396.95693982419897 347.3806025692101 -398.8608856201172 347.5540771484375 C-405.47879658917714 348.1353313794412 -412.00560708186254 348.46593861934826 -418.649169921875 348.315673828125 C-418.6950927734375 348.9851806640625 -418.741015625 349.6546875 -418.788330078125 350.344482421875 C-419.2566741707996 356.85248639135074 -420.2522216679015 363.1930015988644 -421.45703125 369.5966796875 C-422.73595662458587 376.47163071020884 -423.6881868705733 383.39009527142406 -424.649169921875 390.315673828125 C-461.4779662445969 389.83826956077905 -498.12656676876566 389.3244555312999 -534.774169921875 385.440673828125 C-535.5056726074218 385.36553558349607 -536.2371752929687 385.2903973388672 -536.9908447265625 385.2129821777344 C-545.0260625616168 384.37302379112094 -552.8900718677371 383.18889258413986 -560.766357421875 381.370361328125 C-561.4534378051758 381.2131057739258 -562.1405181884766 381.05585021972655 -562.8484191894531 380.8938293457031 C-567.3827754848734 379.789890097156 -571.4677664283338 378.35416622636006 -575.649169921875 376.315673828125 C-579.958069647201 367.6978743774729 -576.1971617660776 351.0990737884771 -575.399169921875 341.628173828125 C-575.3658808898925 341.226630859375 -575.3658808898925 341.226630859375 -575.1974182128906 339.194580078125 C-572.0019155392949 301.05753358741725 -565.7406213956809 262.9473761307757 -550.961669921875 227.440673828125 C-550.6054858398438 226.572490234375 -550.2493017578125 225.704306640625 -549.88232421875 224.809814453125 C-547.4524406095097 219.23976493279764 -545.0586784374914 216.06752074498868 -539.528076171875 213.225830078125 C-490.9708958289808 195.4570136625971 -433.9008917554622 194.67617238784675 -382.78085231781006 190.14013481140137 C-378.3199589517715 189.74399947903595 -373.8602985510013 189.3356977692111 -369.40087890625 188.92333984375 C-365.25121973154523 188.54064255482723 -361.10346607683994 188.19806015560533 -356.9462890625 187.9091796875 C-355.32769341236354 187.77805502542643 -353.7091201666775 187.6466533178511 -352.090576171875 187.514892578125 C-351.74293212890626 187.4973391723633 -351.74293212890626 187.4973391723633 -349.983642578125 187.40850830078125 C-346.20509172280856 187.07071859477136 -344.1190205451644 186.1632462391027 -341.54541015625 183.49365234375 C-338.168958562154 179.21533849286536 -338.168958562154 179.21533849286536 -336.805419921875 176.831298828125 C-334.8197345466134 173.52542045880364 -332.5608584836425 170.5938108028463 -330.086669921875 167.628173828125 C-329.355771484375 166.741298828125 -328.624873046875 165.854423828125 -327.871826171875 164.940673828125 C-324.9809830819237 161.52653225264643 -322.0034234625866 158.1993496360682 -318.985107421875 154.897705078125 C-317.74212318478396 153.52377099665813 -316.5043125148634 152.144339662213 -315.30810546875 150.7294921875 C-309.74984155137093 144.19429494046744 -303.6699791432378 138.18554122020373 -297.59765625 132.1337890625 C-295.71588718033007 130.25737907626473 -293.8395225414559 128.37568413735275 -291.963623046875 126.493408203125 C-286.02901850058714 120.55526407262158 -280.0835013703561 114.71767765323018 -273.649169921875 109.315673828125 C-272.684951171875 108.470048828125 -271.720732421875 107.624423828125 -270.727294921875 106.753173828125 C-261.0786327273139 98.43719978198394 -250.9226282109687 90.83923791669314 -240.649169921875 83.315673828125 C-240.28283447265625 83.04666259765625 -240.28283447265625 83.04666259765625 -238.428955078125 81.685302734375 C-180.69082759595562 39.4905096405362 -112.51851513652207 11.709910548253488 -41.649169921875 2.315673828125 C-41.30569015502931 2.2690611267089844 -41.30569015502931 2.2690611267089844 -39.567474365234375 2.033172607421875 C-26.38307586146243 0.2882197455193909 -13.28906442717539 -0.025696822998906743 0 0 Z " fill="#F0910C" transform="translate(724.649169921875,-0.315673828125)"/>
<path d="M0 0 C5.770970377814592 0.0026242856467320053 11.541939598902331 0.00015906671569609898 17.312910079956055 -0.0013861656188964844 C26.99312953033109 -0.0031808826190058426 36.67334123419869 -0.0008752838882628566 46.353559494018555 0.003954410552978516 C56.134163545746105 0.008779625403462887 65.91475232653113 0.008778160015481262 75.69535636901855 0.003954410552978516 C180.56020514645547 -0.04658487006844325 180.56020514645547 -0.04658487006844325 232.54594230651855 1.1343255043029785 C231.45400491528153 2.8671584905375767 230.35980824575586 4.598567903567414 229.26469230651855 6.3293938636779785 C228.6556102752686 7.293728427886947 228.04652824401853 8.258062992095972 227.41898918151855 9.251619815826416 C224.63671395131382 13.533669955665403 221.61077401293267 17.614627560487634 218.54594230651855 21.69682550430298 C214.9035223102985 26.584195592102333 211.2726553414061 31.458274258985057 207.85844230651855 36.50932550430298 C200.88656192980432 46.57399492031152 192.3550396441036 55.588344414528024 184.02885246276855 64.53373956680298 C182.42510547026575 66.26475130253698 180.83463239203297 68.00738790828984 179.24516105651855 69.75151300430298 C174.18621790176326 75.28322731052663 169.19492102993422 80.69903320650997 163.42484855651855 85.50541925430298 C161.23897554232792 87.40044845787361 159.2502640726434 89.43559166012176 157.23344230651855 91.50932550430298 C153.20676266016358 95.58418764215287 148.93917354124426 99.1951944478028 144.46781730651855 102.77104425430298 C141.9700290761691 104.79131414649737 139.53281018607674 106.86437723172389 137.10795402526855 108.97099542617798 C123.80451865634791 120.47582629461158 109.35307409141546 130.6639527875193 94.54594230651855 140.13432550430298 C93.78652336120604 140.62223566055297 93.02710441589352 141.11014581680297 92.24467277526855 141.61284112930298 C9.223207829352873 194.70162181938485 -90.05632100144908 221.8658718447657 -198.80610847473145 203.72758722305298 C-222.63831416654597 198.38808327402944 -245.47012865138146 190.80731117778168 -267.45405769348145 180.13432550430298 C-268.172226638794 179.78821222305294 -268.89039558410644 179.442098941803 -269.63032722473145 179.08549737930298 C-292.42854080259485 167.95823777704868 -313.2143220513187 152.70179660422605 -331.45405769348145 135.13432550430298 C-332.11341316223144 134.50220148086544 -332.77276863098143 133.870077457428 -333.45210456848145 133.21879816055298 C-342.4145537835711 124.58110496761446 -350.87508907336445 115.84501585864189 -358.23628425598145 105.79204034805298 C-359.4213940786942 104.17878940654941 -360.6365962165864 102.58778082343451 -361.85249519348145 100.99760675430298 C-380.2593713319065 76.57087175299682 -392.3063873650649 49.11295012734638 -401.45405769348145 20.13432550430298 C-382.7294096328832 17.93395383078797 -363.99895718906697 16.170256478988506 -345.20405769348145 14.696825504302979 C-343.86481233673794 14.590805799694408 -342.52557909912593 14.484632903968816 -341.18635749816895 14.378313541412354 C-332.2692035208383 13.670608260274491 -323.35114594045785 12.97506642476759 -314.43245124816895 12.287065982818604 C-312.49919495331136 12.137810294601138 -310.5659812545389 11.98800319913829 -308.63276863098145 11.838182926177979 C-282.63000391251296 9.82496650884974 -256.6347055840343 7.900381302781682 -230.57417488098145 6.8171868324279785 C-229.05886586669192 6.753856627493008 -227.54356651093713 6.690294938377917 -226.02827644348145 6.6265130043029785 C-225.24886695861812 6.593712406158431 -224.46945747375491 6.560911808013941 -223.66642951965332 6.5271172523498535 C-217.08231325753218 6.236076918447225 -210.5057517211497 5.842333253690697 -203.9277057647705 5.439150333404541 C-185.1849964897466 4.290836683403995 -166.44056046900937 3.4485505656713826 -147.67573738098145 2.7566399574279785 C-143.63305931737295 2.6074242113950277 -139.59072316890501 2.4505622397996945 -135.54842448234558 2.291443645954132 C-115.79621679460911 1.5194843449193058 -96.04311051518175 0.9680469082064178 -76.27925300598145 0.5999016761779785 C-75.69825670719149 0.5890254080295563 -75.69825670719149 0.5890254080295563 -72.75806331634521 0.533984899520874 C-48.504646074750326 0.08921916375567207 -24.256923419313466 -0.01462567434259654 0 0 Z " fill="#E21F33" transform="translate(711.4540576934814,487.865674495697)"/>
<path d="M0 0 C0.7678582763671784 0.0018228149414198924 1.5357165527343568 0.003645629882839785 2.32684326171875 0.005523681640625 C13.69979768271105 0.05093266859921641 24.621983989474302 0.520793010569264 35.6875 3.3125 C36.37827636718748 3.4787890625000273 37.069052734374964 3.6450781250000546 37.78076171875 3.81640625 C53.43676256930257 7.651398520037787 68.20761765049838 13.971465411655004 80.6875 24.3125 C81.54859375000001 25.02277343749995 82.40968750000002 25.733046875000014 83.296875 26.46484375 C97.9488526438115 39.096624476255556 108.32169263049013 56.11532099387239 111.6875 75.3125 C113.64688206745132 107.22667761378989 105.14754253102228 134.79241777922812 84.6875 159.3125 C84.31625000000008 159.76044921874995 84.31625000000008 159.76044921874995 82.4375 162.02734375 C77.09140422678456 168.22308688717283 71.20348004683729 173.37747489750268 64.6875 178.3125 C63.74648437499991 179.0305078125 62.805468750000045 179.74851562499998 61.8359375 180.48828125 C27.551148902348586 205.4266998294288 -14.712233652489772 213.90385348270866 -56.464111328125 208.543212890625 C-60.12418337755639 207.9576495903043 -63.71514876568256 207.20363107585035 -67.3125 206.3125 C-67.71766845703121 206.21316162109383 -67.71766845703121 206.21316162109383 -69.76806640625 205.71044921875 C-95.93647017159094 199.05746521061246 -120.18906056868252 185.6454212054564 -134.37109375 161.87109375 C-145.36995798647308 142.37383417036745 -146.32959649281486 120.19634082642438 -140.788330078125 98.87890625 C-130.82617335897896 63.580244490165114 -103.5868566493873 35.47562696711543 -72.4375 17.5 C-49.61947922160607 4.842184942729546 -25.869271927409386 -0.12803097292885468 0 0 Z M-46.3125 71.3125 C-61.524367493961904 89.48633625201671 -71.00565310754098 110.2505075792177 -69.5283203125 134.26513671875 C-68.66272025424564 142.47658704513117 -64.78861047582018 150.11184247653796 -58.7890625 155.7421875 C-51.12908679204861 161.81982080818682 -41.83619165135963 163.22014464633116 -32.3125 162.3125 C-11.95958520914121 159.63902390459066 6.409646726187702 145.07247004023418 18.6875 129.3125 C30.702281417038193 112.61768965752503 40.25591024987875 93.40201639569182 38.6875 72.3125 C36.86331355989864 62.319713986209536 33.26492622484784 53.96002272174883 24.73046875 47.9296875 C1.0164610990771052 32.530981233166926 -30.478760222918936 52.875534147383405 -46.3125 71.3125 Z " fill="#19203D" transform="translate(1010.3125,848.6875)"/>
<path d="M0 0 C0.5680561065673828 -0.0026284790038744177 0.5680561065673828 -0.0026284790038744177 3.4427642822265625 -0.01593017578125 C7.194974930612901 -0.02911813168611843 10.946759676390101 -0.020387053597573868 14.698974609375 -0.01025390625 C17.326696580572673 -0.012277070172785898 19.95441800283743 -0.01519052697153711 22.582138061523438 -0.018951416015625 C28.09744823845594 -0.024405014548506188 33.61263785622805 -0.01723993983046057 39.1279296875 -0.0029296875 C45.44488003173487 0.013274609833501927 51.7615379563624 0.008196781777542128 58.078480780124664 -0.008408904075622559 C63.54221509177303 -0.02218202103108524 69.00586306471831 -0.02386398668477341 74.46960920095444 -0.016092896461486816 C77.71419595046797 -0.011486157754006854 80.95862099198513 -0.011820181150596909 84.20320320129395 -0.020702362060546875 C141.58635606941903 -0.1431699087816014 141.58635606941903 -0.1431699087816014 161.913818359375 18.57177734375 C170.6867018811256 28.37800531878372 174.1306372086246 39.16877113724661 174.038818359375 52.13818359375 C174.035595703125 52.61787597656246 174.035595703125 52.61787597656246 174.019287109375 55.04541015625 C173.65335633322437 69.369674091094 168.45013878289836 79.54601806903361 158.304443359375 89.60302734375 C151.3348605378188 96.05589971474251 144.15132204839244 100.61480982842704 135.101318359375 103.51318359375 C134.3270751953125 103.76543701171875 133.55283203125 104.01769042968749 132.755126953125 104.277587890625 C120.9696824263792 107.9738340801631 108.85837074704651 109.69980783413064 96.538818359375 110.38818359375 C97.43342773437499 110.78908203125002 98.328037109375 111.18998046875004 99.249755859375 111.60302734375 C107.60999135902404 115.48265924922134 113.90672012728592 119.89595386567692 120.538818359375 126.38818359375 C121.84448704530132 127.50041988176133 123.15671656126932 128.60501422198945 124.476318359375 129.70068359375 C133.87341336715033 137.927859142726 141.5935852535572 147.7633007278281 149.177001953125 157.6279296875 C150.4989035854476 159.33659063569758 151.83705160496754 161.03073305755947 153.183349609375 162.72021484375 C158.6701594725761 169.61219560569043 163.98955500533944 176.61658558833506 169.226318359375 183.70068359375 C169.85127197265626 184.54397216796883 170.4762255859375 185.38726074218744 171.1201171875 186.256103515625 C171.69528076171875 187.0383227539062 172.2704443359375 187.82054199218737 172.863037109375 188.62646484375 C173.37954833984375 189.3281176757812 173.8960595703125 190.02977050781237 174.42822265625 190.752685546875 C175.538818359375 192.38818359375 175.538818359375 192.38818359375 175.538818359375 193.38818359375 C147.818818359375 193.38818359375 120.098818359375 193.38818359375 91.538818359375 193.38818359375 C87.24881835937501 185.79818359375008 82.95881835937499 178.20818359374994 78.538818359375 170.38818359375 C76.3131279885682 166.57470992494086 74.08818641209433 162.77982482502625 71.788818359375 159.01318359375 C71.23299072265624 158.09891601562504 70.67716308593751 157.18464843749996 70.1044921875 156.24267578125 C64.67739974758904 147.42299943436603 58.86128328259865 138.87763863495843 52.959716796875 130.37109375 C52.267812500000005 129.37126464843755 51.575908203124996 128.37143554687498 50.863037109375 127.34130859375 C50.245173339843745 126.45604492187499 49.627309570312505 125.57078124999998 48.99072265625 124.65869140625 C47.538818359375014 122.38818359375 47.538818359375014 122.38818359375 46.538818359375 119.38818359375 C44.35131835937503 118.32568359375 44.35131835937503 118.32568359375 41.538818359375 117.38818359375 C40.610693359375006 117.03755859374996 39.682568359375 116.68693359375004 38.726318359375 116.32568359375 C34.97044398060024 115.22101465881622 31.430431537499928 114.79076426734912 27.538818359375 114.38818359375 C27.491163330078123 114.96370971679687 27.491163330078123 114.96370971679687 27.25 117.876220703125 C26.4303604653725 125.20660369810332 24.72621024865427 132.38085109297708 23.159912109375 139.57958984375 C22.824647956067423 141.13606011564298 22.489779912224023 142.6926157573081 22.155288696289063 144.24925231933594 C21.279707396814985 148.31886164586695 20.398797160129675 152.3872989995291 19.5167236328125 156.45550537109375 C18.61523091499562 160.61790923342403 17.718849800647135 164.78141336051544 16.822021484375 168.94482421875 C15.065918582731825 177.0936882597814 13.304177227849308 185.2413197638059 11.538818359375 193.38818359375 C3.7236664880157946 193.4811809487221 -4.091353873680298 193.55209832663695 -11.90692138671875 193.59543228149414 C-15.536698949141808 193.6162387486304 -19.166095791980204 193.64442713008498 -22.795654296875 193.68994140625 C-26.303494268709542 193.73365018810205 -29.810969839334838 193.75737280806356 -33.319061279296875 193.76769256591797 C-35.29762807629706 193.77859613122064 -37.276049850508784 193.80978193967712 -39.25439453125 193.84136962890625 C-52.35476075860559 193.84461207979075 -52.35476075860559 193.84461207979075 -57.461181640625 189.38818359375 C-62.11984338843532 182.8314065782199 -61.06586843108384 175.60198556782348 -59.96562957763672 167.93489456176758 C-59.27347710231446 164.21840090947364 -58.49331602229799 160.53147165763676 -57.678955078125 156.83984375 C-57.37890085643289 155.4339513155934 -57.0800106817635 154.02781002678694 -56.78218078613281 152.62144470214844 C-55.97782715361611 148.83974632010586 -55.1571621857803 145.06176449774523 -54.33310604095459 141.28431749343872 C-53.4676176417742 137.30417830849638 -52.61684643288834 133.32089274714735 -51.76422119140625 129.33798217773438 C-50.33042593191679 122.65031023486279 -48.88679521516967 115.96482603022707 -47.436279296875 109.28076171875 C-45.58381138909142 100.74428742353166 -43.74700325412613 92.20452588928424 -41.915401458740234 83.66355323791504 C-40.32961728529105 76.26916970352431 -38.73725337905913 68.87620550200427 -37.143521308898926 61.48353147506714 C-36.6368890637057 59.13253025851759 -36.131005765615924 56.78136872890525 -35.62517547607422 54.43019485473633 C-34.82453714896483 50.71104654705027 -34.01978440951629 46.992809090436594 -33.21205711364746 43.27519416809082 C-32.78107886456571 41.28795893055985 -32.353536531893155 39.29997946475646 -31.926162719726563 37.31196594238281 C-30.536554583170297 30.936813827573587 -29.069337046526663 24.583305644587426 -27.46197509765625 18.259613037109375 C-27.15893085479736 17.056144161224324 -26.855886611938473 15.852675285339387 -26.543659210205078 14.612737655639648 C-24.5072571570838 8.546571763093766 -21.11662117371157 4.819637225893871 -15.547866821289063 1.817718505859375 C-10.494599287741707 -0.2839611612274666 -5.395585998246091 -0.03084244193178165 0 0 Z M45.538818359375 31.38818359375 C44.107186033745535 37.70365006880877 42.683893992331576 44.020954454329626 41.266357421875 50.339599609375 C40.783246915142584 52.48846865861594 40.29823573249328 54.636911322058836 39.811279296875 56.784912109375 C39.111274167240595 59.874220462098265 38.41814074784075 62.96500264955148 37.726318359375 66.05615234375 C37.61694946289063 66.53540916442876 37.61694946289063 66.53540916442876 37.0634765625 68.96073913574219 C36.86326904296875 69.86129531860354 36.663061523437506 70.76185150146489 36.456787109375 71.689697265625 C36.36796264648437 72.0838558197022 36.36796264648437 72.0838558197022 35.91845703125 74.07853698730469 C35.51182903991047 76.55238127625603 35.4737406989658 78.88554946958266 35.538818359375 81.38818359375 C79.17866065284363 82.45698153989747 79.17866065284363 82.45698153989747 91.538818359375 71.38818359375 C96.75395602384123 66.27485989670288 99.80516525716192 61.58361295667362 99.913818359375 54.07568359375 C99.76098793994612 46.97862099152235 97.71533664452576 42.61416820356328 92.788818359375 37.57568359375 C85.44429417884061 32.63225385685189 78.04792518978775 31.254401261114594 69.269287109375 31.29052734375 C68.58828445434571 31.291942291259716 67.90728179931642 31.293357238769545 67.20564270019531 31.294815063476563 C65.04582188577467 31.30038061306766 62.88610746563721 31.312926564592317 60.726318359375 31.32568359375 C59.25561673912061 31.330703053204843 57.784913482336364 31.335265179235194 56.314208984375 31.33935546875 C52.722377955309895 31.350338713135102 49.13060855482681 31.367579378525875 45.538818359375 31.38818359375 Z " fill="#19203D" transform="translate(60.461181640625,856.61181640625)"/>
<path d="M0 0 C0.4432914733886264 -0.00285507202147528 0.4432914733886264 -0.00285507202147528 2.686614990234375 -0.017303466796875 C3.6573545837402435 -0.018421325683561918 4.628094177246112 -0.019539184570362522 5.6282501220703125 -0.02069091796875 C6.653276367187459 -0.025655822753947177 7.678302612304719 -0.030620727539030668 8.734390258789063 -0.035736083984375 C12.14148121883386 -0.0503884614869321 15.548525333231737 -0.057171394327383496 18.955642700195313 -0.06268310546875 C21.33766683079523 -0.06844018914603112 23.71969096000589 -0.07419784770684146 26.101715087890625 -0.0799560546875 C31.114631298701056 -0.09048030332724011 36.127531443182306 -0.09631096817076923 41.14045715332031 -0.09979248046875 C47.49755134388113 -0.10522400298850698 53.85442552227153 -0.12912955250749292 60.21145153045654 -0.15776443481445313 C65.14583906630025 -0.17661158175565106 70.0801764880539 -0.18160839149550156 75.01459693908691 -0.18312835693359375 C77.35324087445747 -0.1861154007777941 79.69188479984018 -0.1940063259261251 82.03049278259277 -0.20731353759765625 C111.16732117717527 -0.3610174325041271 145.16884825489933 0.33051740440146204 167.5064239501953 21.76153564453125 C176.97222690170474 32.204785639946635 180.10599399000307 45.839183173982974 179.7993927001953 59.68341064453125 C179.06127770462444 72.94839156493356 174.21725488554227 86.59898976694672 164.7407989501953 96.28887939453125 C128.32484845578938 128.73466987262975 78.73402527888084 127.66859671575958 32.66267395019531 127.14044189453125 C32.548073272705096 127.86194427490238 32.43347259521488 128.5834466552734 32.315399169921875 129.32681274414063 C31.102186246428573 136.8029718244594 29.670039949038483 144.20910062685027 28.096267700195313 151.61700439453125 C27.857312774658226 152.74947601318354 27.61835784912114 153.88194763183594 27.372161865234375 155.04873657226563 C26.871718752864922 157.41697628484292 26.369990840864716 159.7849448417694 25.867019653320313 162.15264892578125 C25.09503076574981 165.78967266289317 24.328812670147386 169.4278809353209 23.563064575195313 173.06622314453125 C23.07447554271505 175.37488956602078 22.585555352449205 177.68348593419228 22.096267700195313 179.99200439453125 C21.86709152221681 181.08147369384778 21.63791534423831 182.1709429931641 21.40179443359375 183.29342651367188 C21.294945755004846 183.79452438354497 21.294945755004846 183.79452438354497 20.754226684570313 186.33038330078125 C20.567065887451236 187.21352203369133 20.379905090332045 188.09666076660164 20.18707275390625 189.00656127929688 C19.662673950195313 191.14044189453125 19.662673950195313 191.14044189453125 18.662673950195313 193.14044189453125 C10.812938854375943 193.21008419769078 2.9632767227078602 193.26332514393562 -4.886690139770508 193.29587841033936 C-8.532130650154443 193.3115058082135 -12.177359116825073 193.33268994435525 -15.822677612304688 193.36676025390625 C-19.343459543849747 193.39945906722664 -22.864038062258544 193.41731690623396 -26.384960174560547 193.42507362365723 C-28.37575240238482 193.4332792170735 -30.36646329517481 193.45668187664137 -32.35713195800781 193.48033142089844 C-33.57794464111328 193.48055801391592 -34.79875732421874 193.48078460693364 -36.05656433105469 193.48101806640625 C-37.12689910888673 193.4876799011231 -38.19723388671878 193.49434173583995 -39.30000305175781 193.50120544433594 C-44.790604095853496 192.84904934355154 -48.80550216061113 190.32630724468663 -52.33732604980469 186.14044189453125 C-55.42866513566179 176.8664246369599 -52.29837336698188 166.79879710135629 -50.31144714355469 157.55230712890625 C-49.985398558880036 155.9991225872809 -49.660185607071924 154.4457624305959 -49.33573913574219 152.89224243164063 C-48.456806380902265 148.6980849404939 -47.564839190921816 144.5068059424649 -46.669326305389404 140.3161609172821 C-45.92059453603673 136.80800571629118 -45.17754757746002 133.2986552095449 -44.43422758579254 129.78935009241104 C-42.67946471299564 121.50689466909694 -40.91327765686776 113.22693010033186 -39.14054870605469 104.94830322265625 C-37.31611433376395 96.42695549191592 -35.513798364097795 87.90113490314604 -33.72183167934418 79.37290614843369 C-32.178195756913 72.03119287818527 -30.619448287655928 64.69279445151528 -29.048977494239807 57.35677486658096 C-28.113084069627803 52.983861312041086 -27.18316102293909 48.609892382159614 -26.268367767333984 44.23251152038574 C-25.40743880934326 40.11559773575573 -24.52765616478274 36.00315383275779 -23.633621215820313 31.893306732177734 C-23.310047571946484 30.390787450080893 -22.99302659513495 28.886838532826346 -22.68332290649414 27.381399154663086 C-20.722465014528268 17.874684732871174 -18.52854366226859 8.526788085395424 -10.149826049804688 2.64044189453125 C-6.5977364467055395 0.7459941062116968 -3.9678274181712823 0.01533116352095476 0 0 Z M52.66267395019531 31.14044189453125 C51.09041688022421 38.4715902872947 49.52448618332437 45.80406923010173 47.96296691894531 53.13751220703125 C47.43089890224235 55.63261579237519 46.897378113022114 58.12741003832457 46.36238098144531 60.62188720703125 C45.59407920693343 64.20539492711077 44.83099196695969 67.78997903609581 44.06892395019531 71.37481689453125 C43.828312377929706 72.49160827636717 43.5877008056641 73.6083996582031 43.33979797363281 74.759033203125 C43.1195697021484 75.79981018066405 42.899341430664094 76.8405871582031 42.67243957519531 77.91290283203125 C42.47702575683593 78.82779479980468 42.281611938476544 79.7426867675781 42.08027648925781 80.685302734375 C41.66267395019531 83.14044189453125 41.66267395019531 83.14044189453125 41.66267395019531 87.14044189453125 C60.94625358607209 87.63051071103018 81.01192769806892 88.04638269355473 96.68611145019531 75.05841064453125 C102.46352353364273 69.45226571770775 105.51096922103659 62.72674545061204 105.72908020019531 54.69512939453125 C105.41579343627268 48.486355345882544 103.83030725278911 43.8081911934363 99.66267395019531 39.14044189453125 C90.32406242007346 30.839453867756333 77.22055871290604 30.704932419031934 65.41267395019531 30.95294189453125 C63.13827591740642 30.98746197161347 60.86386027546814 31.02083392158397 58.58943176269531 31.05328369140625 C58.03010955810544 31.06150901794433 58.03010955810544 31.06150901794433 55.19960021972656 31.103134155273438 C54.78100738525393 31.10928993225093 54.78100738525393 31.10928993225093 52.66267395019531 31.14044189453125 Z " fill="#19203D" transform="translate(512.3373260498047,856.8595581054688)"/>
<path d="M0 0 C1.2817007446288926 -0.0013746643066951947 2.563401489257785 -0.0027493286132767025 3.883941650390625 -0.0041656494140625 C5.312347643552414 -0.0006262610796738954 6.740753402828602 0.0030085520701277346 8.169158935546875 0.0067291259765625 C9.66697182317455 0.007011070012822529 11.164784849217028 0.00685312275504657 12.66259765625 0.00628662109375 C16.736741487938957 0.005998927718678715 20.810856062487915 0.011891131634570229 24.884993076324463 0.018860578536987305 C29.139778230507545 0.025098778672827393 33.39456400572186 0.0256982860989865 37.64935302734375 0.026885986328125 C45.709967070351354 0.029997921324138588 53.77056760056564 0.03820946378391454 61.831175684928894 0.04823547601699829 C71.0063781698617 0.05940087670342109 80.18158128967002 0.06490814208132178 89.35678887367249 0.06993091106414795 C108.2341946371887 0.08039218259943937 127.11158781049835 0.09798897294786002 145.98898315429688 0.1202545166015625 C145.23172513188348 3.831492943361013 144.4557767318821 7.538585924075619 143.67648315429688 11.245254516601563 C143.4631433105469 12.29197326660153 143.24980346679683 13.338692016601613 143.02999877929688 14.417129516601563 C141.48953877832355 21.68258265552049 140.00429667386538 27.85856478379708 134.17648315429688 32.87025451660156 C133.85357299804684 33.1564263916016 133.85357299804684 33.1564263916016 132.21945190429688 34.60462951660156 C127.25576802475655 37.97750052406502 122.39757223354638 38.36738280697443 116.51486206054688 38.34730529785156 C116.15354187011718 38.347451324462895 116.15354187011718 38.347451324462895 114.32504272460938 38.34819030761719 C111.95508487182423 38.34680567395776 109.58544805529436 38.33128578543517 107.21554565429688 38.31556701660156 C105.56502453318456 38.31183379720369 103.91450118611749 38.308988283764165 102.26397705078125 38.30699157714844 C97.93372406801421 38.29937943598054 93.60360664933472 38.279751875844454 89.27340698242188 38.25758361816406 C84.84919060674446 38.23707292992651 80.42495218781232 38.22797871481782 76.00070190429688 38.21791076660156 C67.33006698990863 38.19650356982061 58.659541967996404 38.16239702745031 49.988983154296875 38.12025451660156 C49.853228759765614 38.83455627441401 49.71747436523435 39.548858032226576 49.577606201171875 40.28480529785156 C48.94555648144694 43.60527301713432 48.31102706900151 46.925262573190025 47.676483154296875 50.24525451660156 C47.463143310546855 51.368027954101535 47.24980346679689 52.49080139160151 47.029998779296875 53.64759826660156 C46.8140808105469 54.77552795410156 46.598162841796864 55.90345764160156 46.375701904296875 57.06556701660156 C46.18193969726565 58.08150939941402 45.988177490234364 59.097451782226585 45.788543701171875 60.14418029785156 C44.581138180759694 66.14839596363254 43.27222581649477 72.13178875967799 41.988983154296875 78.12025451660156 C70.69898315429691 78.4502545166016 99.40898315429689 78.78025451660153 128.98898315429688 79.12025451660156 C122.77144587770954 107.72092598890333 122.77144587770954 107.72092598890333 115.92648315429688 112.49525451660156 C115.2548815917969 112.9773638916015 114.58328002929687 113.45947326660155 113.89132690429688 113.95619201660156 C109.91577896718593 116.38886816703086 106.16860534865725 116.25688003859204 101.67184448242188 116.23377990722656 C101.30098976135253 116.23385292053217 101.30098976135253 116.23385292053217 99.42424011230469 116.23422241210938 C96.97313510617596 116.23352585958617 94.52210613293414 116.22574549146032 92.07101440429688 116.21791076660156 C90.37136374433487 116.21604567305542 88.6717125468283 116.21462220057435 86.97206115722656 116.213623046875 C82.49878454170141 116.20980506612602 78.02554039809104 116.19998089553644 73.55227661132813 116.18891906738281 C68.98756346916412 116.17868950765535 64.42284508012227 116.17412211193027 59.858123779296875 116.16908264160156 C50.901729304809464 116.15835800252762 41.945358929903705 116.14129018201868 32.988983154296875 116.12025451660156 C32.65898315429689 119.09025451660159 32.32898315429691 122.06025451660162 31.988983154296875 125.12025451660156 C29.678983154296873 135.02025451660154 27.36898315429687 144.92025451660152 24.988983154296875 155.12025451660156 C53.69898315429691 155.12025451660156 82.40898315429689 155.12025451660156 111.98898315429688 155.12025451660156 C109.60585728984324 178.9515131611381 109.60585728984324 178.9515131611381 102.94210815429688 187.54212951660156 C95.53033856071153 193.53083934821848 88.80828157107032 193.69359417234364 79.59982299804688 193.62196350097656 C78.258635808816 193.62575240951696 76.91745254538296 193.63125714944408 75.57627868652344 193.63833618164063 C71.95439590958779 193.6522311609915 68.33299132775113 193.64116474822117 64.71113538742065 193.62462496757507 C60.91162766383195 193.61071766862915 57.112146100057544 193.6172407719855 53.3126220703125 193.62075805664063 C46.93578431857168 193.62345505413987 40.55913535332911 193.6100264518243 34.182342529296875 193.58680725097656 C26.818165855087045 193.56017780118623 19.454304231162325 193.558459511926 12.0900958776474 193.5701956152916 C4.991914189204806 193.58098610712682 -2.106153946093457 193.5747778527391 -9.204326629638672 193.560640335083 C-12.21935090287991 193.55489382973474 -15.234291714060248 193.5549526011489 -18.249317169189453 193.55970573425293 C-21.800254484364473 193.5644891273016 -25.35084807117471 193.55431801531358 -28.90172004699707 193.53275108337402 C-30.820851486241736 193.52456238574837 -32.74002802627081 193.53102006633026 -34.65916442871094 193.53794860839844 C-45.28316670939711 193.4464013002396 -45.28316670939711 193.4464013002396 -50.011016845703125 190.12025451660156 C-54.11279498607604 185.57504090159364 -55.26834653288603 182.97073887368674 -55.19052314758301 176.8021411895752 C-54.852793666078526 171.7563451031333 -53.72132609283844 166.8795837183884 -52.643585205078125 161.94813537597656 C-52.391482849121076 160.7595190429688 -52.13938049316408 159.57090270996093 -51.879638671875 158.3462677001953 C-51.189539112505486 155.10152280138732 -50.491367148960364 151.85872015409086 -49.78945231437683 148.61652445793152 C-49.04812833658838 145.18293262155498 -48.317242608462266 141.74711903455398 -47.58512878417969 138.31155395507813 C-46.19132944527905 131.77870932842347 -44.78807855405245 125.24793235990842 -43.38147979974747 118.71783310174942 C-41.80837154943032 111.41231134637246 -40.2463952824682 104.10442503189324 -38.68514430522919 96.79636180400848 C-35.69503379413419 82.80302854464298 -32.70142326378698 68.8104200479221 -29.673095703125 54.82530212402344 C-28.643586928874697 50.06888691084032 -27.626424290656075 45.31019719719427 -26.622243106365204 40.54837530851364 C-26.000050468366965 37.604263860815195 -25.371256314157563 34.661583592274724 -24.74139702320099 31.719103932380676 C-24.441834864320413 30.31220839336231 -24.14512723812254 28.904701562026503 -23.851491808891296 27.496557116508484 C-23.44307674700491 25.53970055043976 -23.02352631446024 23.58517820770487 -22.603561401367188 21.630767822265625 C-22.367952814102182 20.51626030921932 -22.132344226837176 19.401752796173128 -21.889595985412598 18.253472328186035 C-19.899009377231835 11.154576924960338 -16.516248475615555 6.402730926777053 -10.323516845703125 2.3702545166015625 C-6.50481142210208 0.3060894227631934 -4.390989243249123 -0.003616959837927425 0 0 Z " fill="#19203D" transform="translate(309.0110168457031,856.8797454833984)"/>
<path d="M0 0 C1.8141595890940607 0.005613833621509912 3.6283238092809142 0.009875442794282208 5.4424896240234375 0.0128631591796875 C10.155702258522183 0.024171536507083147 14.868625638537196 0.05351322005606107 19.58172607421875 0.08697509765625 C24.415772401847562 0.11798291011837136 29.24986669500936 0.13143326992485527 34.083984375 0.146484375 C43.52356272783675 0.17840033283516732 52.96292894026408 0.22942097195675615 62.40234375 0.29296875 C61.80975128763089 3.461912399032485 61.20113650066844 6.627583742902175 60.58984375 9.79296875 C60.424199218750005 10.679843750000032 60.25855468750001 11.56671874999995 60.087890625 12.48046875 C58.45751483533559 20.847680349787083 56.566319649306706 28.12899285069318 50.40234375 34.29296875 C45.50959858418332 37.18867507262621 41.32271219545032 38.382045549572354 35.69140625 38.50390625 C5.025513317954051 39.384891292559246 5.025513317954051 39.384891292559246 -5.19921875 48.76171875 C-17.507220233162684 62.647669141260394 -18.962120013389153 87.82904831725023 -22.66015625 105.48046875 C-23.706314619577938 110.46599911159535 -24.75973066492702 115.44986053731532 -25.826353073120117 120.43105506896973 C-26.24166740893986 122.38497986725736 -26.646327647611542 124.34115997066658 -27.050552368164063 126.29740905761719 C-31.801603950672984 148.5822586049278 -39.904723372037324 169.11607983901035 -59.59765625 182.29296875 C-69.96259243554505 188.4293526730355 -82.36033194331037 193.42656145416026 -94.56477355957031 193.41322326660156 C-95.53927459716795 193.41459793090826 -96.51377563476558 193.41597259521495 -97.51780700683594 193.41738891601563 C-98.57516555786128 193.41379364013665 -99.63252410888674 193.4101983642579 -100.721923828125 193.406494140625 C-101.84431457519531 193.40664016723622 -102.96670532226563 193.40678619384767 -104.12310791015625 193.4069366455078 C-107.82948749666468 193.40624050779275 -111.5358167019458 193.3984620298379 -115.2421875 193.390625 C-117.81336947165141 193.3887597605808 -120.38455179882237 193.38733635690915 -122.95573425292969 193.38633728027344 C-129.02941565711512 193.38291048178007 -135.1030762985729 193.3750305797214 -141.17674988508224 193.36498779058456 C-148.09329762571167 193.35380020624848 -155.00984624046998 193.34830953848927 -161.9264007806778 193.34329235553741 C-176.15016228950287 193.33284724648638 -190.373908627878 193.3152643018907 -204.59765625 193.29296875 C-204.45067053990294 191.8795553926036 -204.3007592881413 190.4664461243765 -204.149658203125 189.053466796875 C-204.06649856567378 188.26650924682622 -203.98333892822268 187.47955169677743 -203.8976593017578 186.6687469482422 C-203.44458626060123 183.08077993562642 -202.65737204985464 179.61143422000396 -201.78515625 176.10546875 C-201.63240234374996 175.4332226562501 -201.47964843750003 174.7609765625 -201.322265625 174.068359375 C-199.74072645435012 167.64843554789536 -196.97068864667608 162.87381839681018 -191.59765625 158.98046875 C-190.93765625000003 158.48933593749996 -190.27765624999995 157.99820312500003 -189.59765625 157.4921875 C-186.34602425392757 155.54247847110503 -183.25582138679897 155.17026022426194 -179.51025390625 155.13525390625 C-178.71487213134765 155.12499176025392 -177.9194903564453 155.11472961425784 -177.10000610351563 155.10415649414063 C-176.2458712768555 155.09685516357422 -175.39173645019537 155.0895538330078 -174.51171875 155.08203125 C-172.6744708101155 155.0539264866229 -170.83723136578533 155.02526186458977 -169 154.99609375 C-166.12614516713336 154.95515703540605 -163.25244265579897 154.91824488148723 -160.37841796875 154.8916015625 C-128.15961661660504 154.56756992067164 -128.15961661660504 154.56756992067164 -117.9609375 145.90234375 C-108.81422268829476 136.41003517966612 -106.87586672568375 121.93763796687881 -104.22265625 109.54296875 C-103.8341263678999 107.77270335278752 -103.44446230273672 106.00268653094213 -103.0537109375 104.23291015625 C-101.37039821302642 96.58430588172757 -99.72817593497257 88.92707920077078 -98.10617065429688 81.2652587890625 C-97.49895313878665 78.40091946672737 -96.88598661257572 75.53782036262817 -96.27313232421875 72.6746826171875 C-95.86339960575117 70.74222065795948 -95.46587666214077 68.80718221958125 -95.06884765625 66.8720703125 C-90.49016541540664 45.30307132670919 -81.92876971590101 27.25994947222091 -63.22265625 14.66796875 C-57.8425462427075 11.246751616064216 -52.23875839950358 8.67909291130968 -46.28515625 6.41796875 C-45.576333007812536 6.143881835937464 -44.86750976562496 5.869794921875041 -44.13720703125 5.58740234375 C-29.77847263857143 0.4888964793891546 -15.063092641431695 -0.1395655815471173 0 0 Z " fill="#19203D" transform="translate(824.59765625,856.70703125)"/>
<path d="M0 0 C1.4248830390872627 0.007470556536304684 2.8497764290418672 0.0131596378271297 4.2746734619140625 0.01715087890625 C8.005085386263772 0.032343477531412645 11.734863473363475 0.07156842297331423 15.46502685546875 0.115966796875 C19.27933175182784 0.1570584791802503 23.09374016334914 0.17519137390547712 26.908203125 0.1953125 C34.37790010460981 0.23807051982169014 41.84703796876988 0.3078576171317309 49.31640625 0.390625 C48.00904766044596 9.574923191102812 46.308015517210606 18.61977781366943 44.351318359375 27.686279296875 C44.056770374707185 29.06417776887622 43.7625448104277 30.442145195982448 43.46861267089844 31.820175170898438 C42.67874941868331 35.518513962070415 41.88424577517708 39.21584088619886 41.088677167892456 42.91295599937439 C40.253958115660225 46.79520309793065 39.423110873996166 50.67827901022633 38.59169006347656 54.56123352050781 C37.19810932349583 61.06669670387146 35.801524777178884 67.57150934993422 34.403076171875 74.075927734375 C32.78590240331255 81.59783817404741 31.173382931360038 89.12073497670224 29.563333451747894 96.64417332410812 C28.011058683938927 103.89719300146817 26.45570188251827 111.14954829317446 24.898866653442383 118.40159034729004 C24.237221584929102 121.4838782968053 23.576632925572767 124.566389856873 22.91688346862793 127.64908409118652 C22.142085878219177 131.26860514077975 21.364589232396384 134.88753593476338 20.584970474243164 138.5060214996338 C20.162313689970233 140.4708282971385 19.742347748161137 142.43621332167606 19.32244873046875 144.401611328125 C19.071539764404406 145.56355514526365 18.820630798339835 146.7254989624023 18.562118530273438 147.9226531982422 C18.34440764427177 148.93633311271674 18.126696758270327 149.95001302719118 17.90238857269287 150.99441051483154 C17.31640625 153.390625 17.31640625 153.390625 16.31640625 155.390625 C38.09640624999997 155.390625 59.876406249999945 155.390625 82.31640625 155.390625 C81.67986797324602 161.75600776754072 81.04498060198875 167.52467502269565 79.50390625 173.640625 C79.35115234375007 174.308359375 79.19839843749992 174.97609375000002 79.041015625 175.6640625 C77.54253950284033 181.70534963281784 75.00861688842724 186.6882290695978 69.75390625 190.203125 C69.17511718750006 190.6014453124999 68.59632812500013 190.999765625 68 191.41015625 C64.83366889810804 193.25412169448919 62.16791574970034 193.51847729186602 58.59220886230469 193.53106689453125 C57.620713958740225 193.5367770385742 56.64921905517576 193.54248718261715 55.648284912109375 193.54837036132813 C55.116048126220676 193.5489292907714 55.116048126220676 193.5489292907714 52.422607421875 193.5517578125 C51.86150016784677 193.55424026489254 51.86150016784677 193.55424026489254 49.02195739746094 193.56680297851563 C45.30109041099081 193.58143506655415 41.58026605720761 193.58822834551393 37.859375 193.59375 C35.27728778528217 193.599500548602 32.69520058658122 193.6052582932207 30.113113403320313 193.61102294921875 C25.387900986731893 193.6201916312168 20.662705653882767 193.62649075278068 15.937485873699188 193.62951970100403 C8.988878043134719 193.63399866112127 2.040467097619512 193.65154014458994 -4.908080875873566 193.6805202960968 C-10.931411399657463 193.70476722613512 -16.954648989314364 193.71246526900677 -22.9780330657959 193.71419525146484 C-25.538093660490176 193.71722386284432 -28.098153382928558 193.72525935613612 -30.65818214416504 193.7383804321289 C-34.23947710559605 193.75542562559508 -37.82029231326487 193.753564091312 -41.401611328125 193.7470703125 C-42.46001220703124 193.75628509521493 -43.51841308593748 193.76549987792964 -44.60888671875 193.77499389648438 C-50.048815140244415 193.74407838295656 -54.015921775478546 193.5171409957195 -58.68359375 190.390625 C-63.22068325958753 185.48566336801355 -63.9269558585911 181.98777720084354 -63.68359375 175.390625 C-63.348127330419175 173.2154904117267 -62.94667058449113 171.04977478210708 -62.48893737792969 168.8970489501953 C-62.22401992797859 167.63423095703138 -61.95910247802726 166.37141296386721 -61.6861572265625 165.07032775878906 C-61.3888072428997 163.68853897819838 -61.091317221898635 162.30678032654248 -60.793701171875 160.925048828125 C-60.48269856746424 159.45594829157062 -60.172315548102915 157.9867164759753 -59.86250305175781 156.51736450195313 C-59.02165941361591 152.53843929544792 -58.17202117504439 148.56143891678016 -57.32065749168396 144.5847532749176 C-56.428350483506165 140.41004482192352 -55.54379168049036 136.23369482447572 -54.65827941894531 132.0575408935547 C-53.1690945785831 125.03986894655588 -51.67461196817362 118.02334264312424 -50.176513671875 111.007568359375 C-48.26001094763751 102.03223775905201 -46.35202184231366 93.05512035352035 -44.44683361053467 84.07738208770752 C-42.80246559517559 76.32894831204521 -41.154338003384964 68.58131495732357 -39.50552582740784 60.8338258266449 C-38.979038091525354 58.359291726441825 -38.45302064386101 55.884657987474384 -37.927053451538086 53.41001319885254 C-37.09610423622462 49.50170924860572 -36.262802284402596 45.59391351729812 -35.42776298522949 41.68648147583008 C-35.12352190823049 40.26133288988626 -34.819976896551225 38.83603547918074 -34.5172233581543 37.41057014465332 C-33.5940841818649 33.06569120951076 -32.649005379798155 28.726302004039326 -31.68359375 24.390625 C-31.43420862197877 23.254227657318097 -31.184823493957538 22.117830314636194 -30.927881240844727 20.946996688842773 C-30.6816872978211 19.88451021194453 -30.435493354797472 18.8220237350464 -30.181838989257813 17.727340698242188 C-29.970686082840075 16.802164869308513 -29.75953317642211 15.876989040374724 -29.54198169708252 14.92377758026123 C-27.48463702308095 8.85243421256041 -22.58553632243411 4.330125224027029 -17.073760986328125 1.247314453125 C-11.650607713304453 -0.6964651038306329 -5.689713058261532 -0.08787923041995782 0 0 Z " fill="#19203D" transform="translate(1197.68359375,856.609375)"/>
<path d="M0 0 C0.972139434814494 -0.006284179687497726 1.9442788696288744 -0.012568359374995453 2.9458770751953125 -0.01904296875 C4.0191575622558275 -0.02025146484373863 5.092438049316456 -0.021459960937477263 6.1982421875 -0.022705078125 C6.757823715209952 -0.02479980468751819 6.757823715209952 -0.02479980468751819 9.589645385742188 -0.035400390625 C13.308170249780233 -0.045330843354236094 17.026581001177647 -0.045156343373662367 20.7451171875 -0.042236328125 C22.02339385986329 -0.0419644165039017 23.30167053222658 -0.041692504882803405 24.618682861328125 -0.041412353515625 C60.69199033557197 -0.0063224067106375514 96.67540910192474 1.536302419987635 132.6826171875 3.645263671875 C133.71289031982428 3.7049331665039063 134.74316345214856 3.7646026611328125 135.80465698242188 3.826080322265625 C145.68996873105925 4.4065964377537625 155.5673942921478 5.058504409303964 165.4208984375 6.051513671875 C166.1249028015136 6.115926513671866 166.82890716552743 6.180339355468732 167.5542449951172 6.2467041015625 C172.62679062282336 6.800101916343635 176.81169865538232 8.227014997408446 181.4951171875 10.145263671875 C181.4951171875 11.465263671874993 181.4951171875 12.785263671874986 181.4951171875 14.145263671875 C125.46006884275494 44.060137110999676 32.10411393866298 35.052755744770025 -29.5048828125 36.145263671875 C-28.249373423584643 32.67510199855326 -26.841217264936063 30.011010329876058 -24.5283203125 27.141357421875 C-23.943327636718777 26.40586669921879 -23.358334960937555 25.670375976562468 -22.755615234375 24.91259765625 C-22.136623535156218 24.143752441406264 -21.51763183593755 23.374907226562527 -20.8798828125 22.582763671875 C-15.895890212964787 16.29832138213675 -11.201916474994391 9.983510025730993 -6.8603515625 3.235107421875 C-4.681013080811226 -0.12496775882664224 -3.9707583801583723 0.01779586575992198 0 0 Z " fill="#A9ABA9" transform="translate(948.5048828125,488.854736328125)"/>
<path d="M0 0 C-0.5425757328212057 6.836454233547499 -1.5484265670449986 13.496358197298662 -2.807861328125 20.230224609375 C-4.080265224968798 27.123032463817253 -5.036007550177942 34.058270067777926 -6 41 C-42.82879632272193 40.522595732654054 -79.47739684689068 40.00878170317492 -116.125 36.125 C-116.85650268554687 36.049861755371126 -117.58800537109374 35.974723510742194 -118.3416748046875 35.897308349609375 C-126.37689263974181 35.05734996299594 -134.24090194586216 33.873218756014865 -142.1171875 32.0546875 C-142.80426788330078 31.897431945800804 -143.49134826660156 31.74017639160155 -144.19924926757813 31.578155517578125 C-148.73394280562664 30.474134163578867 -152.81646937369422 29.034352113220223 -157 27 C-158.125 25 -158.125 25 -158 23 C-155.84289117837372 20.307135533782116 -154.01470719395755 19.484588283246467 -150.68994140625 18.736328125 C-149.8239633178711 18.538336181640602 -148.95798522949218 18.34034423828126 -148.06576538085938 18.1363525390625 C-147.1288284301758 17.936668701171868 -146.1918914794922 17.736984863281236 -145.2265625 17.53125 C-144.24668365478516 17.31641967773436 -143.26680480957032 17.101589355468775 -142.25723266601563 16.8802490234375 C-131.69690016516327 14.625014058997863 -121.0643738996009 13.000965106478304 -110.375 11.5 C-109.35340789794921 11.353812255859395 -108.33181579589842 11.207624511718734 -107.27926635742188 11.0570068359375 C-79.02314944593189 7.0161752797773715 -50.6710393697349 3.814733213198167 -22.25 1.1875 C-21.56849884033204 1.1239733886718568 -20.88699768066408 1.0604467773437705 -20.184844970703125 0.9949951171875 C-13.437456274239139 0.372684756780302 -6.777686894073668 -0.16177895852689517 0 0 Z " fill="#E27C0F" transform="translate(306,349)"/>
</svg>
